<svg width="524" height="314" viewBox="0 0 524 314" fill="none" xmlns="http://www.w3.org/2000/svg">
<g clip-path="url(#clip0_10006_18623)">
<path d="M258.263 88.7403C258.942 90.2124 258.716 92.0242 257.47 93.2698C257.244 93.4963 257.47 94.6286 257.81 94.9683C258.489 95.6478 259.282 95.9875 260.188 96.1007C261.547 96.1007 263.019 94.8551 263.811 96.8934C266.416 96.6669 268.341 94.0624 271.285 95.5345C271.964 95.8742 273.436 94.7419 274.569 94.2889C274.456 93.4963 274.456 92.5904 274.569 91.7977C275.248 88.2874 275.814 87.9477 278.645 90.3256C279.778 89.3065 280.231 88.5139 278.872 87.155C277.853 86.2491 277.966 85.23 279.551 84.8903C280.684 84.6638 281.703 84.5506 282.835 84.5506C284.194 84.4373 285.666 84.3241 287.025 84.2109V83.1917C286.232 82.852 285.553 82.7388 284.76 82.7388C283.175 82.9653 281.589 83.8712 280.004 83.7579C278.192 83.6447 276.494 83.0785 275.022 82.1726C274.229 81.7197 275.248 77.3034 276.154 76.5108C277.739 75.2652 279.438 73.9064 281.589 72.2078C280.457 71.8681 279.438 71.1887 278.758 71.3019C277.4 71.7549 276.154 72.4343 275.135 73.3402C274.229 74.1328 273.663 75.2652 272.757 76.0578C271.851 76.8505 270.492 77.4167 269.7 78.3226C268.114 80.0211 268.341 81.2667 270.153 82.6256C271.511 83.6447 271.511 85.1168 269.926 86.0227C268.68 86.5888 267.888 87.8344 267.775 89.3065C267.661 90.6653 267.661 92.5904 265.17 92.1374C262.226 95.9875 262.339 92.2507 261.547 90.6653C261.433 90.4389 261.32 90.0992 261.094 89.7595C260.188 88.4006 259.622 86.4756 258.489 85.9094C257.697 85.5697 255.998 87.155 254.639 87.8344C253.054 88.4006 251.355 87.608 250.789 86.1359C250.223 84.777 249.883 83.4182 249.657 81.9461C249.543 80.927 249.883 80.0211 250.563 79.2285C252.261 77.6432 254.413 76.3975 256.677 75.7181C258.376 75.2652 259.735 73.4534 260.98 71.9813C262.792 69.9431 264.491 67.6783 266.076 65.7533L262.679 66.546C263.472 65.7533 264.377 65.1871 265.283 64.5077C266.302 64.168 267.322 63.9415 268.341 63.8283C269.36 63.2621 271.058 61.3371 272.304 61.5636C274.569 62.0165 276.154 60.318 278.419 60.7709C279.438 60.9974 280.684 59.7518 282.382 59.0724L281.476 60.8842C282.382 60.4312 283.288 60.0915 284.307 59.9783C286.006 60.2047 287.591 60.5444 289.176 60.9974L288.61 61.9033C292.12 62.6959 295.631 63.3753 299.028 64.3945C300.953 64.9607 302.878 65.8666 304.69 66.7724C306.162 67.5651 306.275 68.5842 304.69 69.3769C301.746 70.849 298.688 70.1695 295.631 69.4901C294.725 69.1504 293.706 69.0372 292.8 69.1504L295.518 70.6225C295.518 73.9063 297.556 75.6049 300.726 74.5858L298.575 73.2269L298.801 72.774L304.35 73.6799L303.331 71.6416C304.463 71.0754 305.596 70.6225 306.728 70.2828C307.974 70.0563 309.219 69.8298 310.352 69.7166C310.012 69.1504 309.672 68.5842 309.446 67.9048C309.446 66.8857 309.446 65.8666 309.672 64.9607L313.862 65.8666V66.6592L311.824 67.3386C313.409 69.7166 313.975 69.6034 316.013 67.9048C317.712 66.546 319.863 65.9798 321.902 65.1871C322.694 64.9607 323.487 64.7342 324.166 64.7342C325.865 67.4519 328.243 64.8474 330.394 64.9607C331.413 65.0739 332.433 63.6018 333.225 65.3004C334.131 65.0739 334.924 64.8474 335.83 64.5077L331.3 61.3371C334.358 61.6768 337.302 62.243 340.359 63.0356C342.85 63.8283 345.115 65.5268 347.946 65.3004C345.908 63.8283 344.662 62.1297 344.889 60.0915C345.795 58.8459 346.814 57.6003 347.946 56.5812C349.078 56.015 350.324 55.6753 351.57 55.7885C352.589 55.9017 353.495 56.1282 354.401 56.4679L353.042 58.5062C353.381 60.9974 353.721 63.2621 354.061 65.5268L355.08 65.8666L350.664 69.9431C353.834 70.6225 356.439 68.8107 356.892 64.9607C358.364 65.0739 360.176 64.2812 360.289 66.7724C361.987 65.3004 361.534 64.0548 359.496 63.9415C358.251 63.8283 356.892 63.9415 355.42 63.9415C355.306 62.243 355.08 60.5444 354.853 58.5062L357.684 56.6944V59.1856L360.176 59.5253L358.251 57.94L361.195 58.3929L361.421 57.94L359.949 56.9209L360.062 56.3547C361.987 56.9209 363.912 57.6003 365.724 58.0532C366.517 58.2797 367.196 58.3929 367.989 58.5062C368.102 58.2797 368.102 58.0532 368.102 57.8268C367.423 57.487 366.743 57.2606 365.724 56.8076C365.611 56.3547 365.271 55.562 365.045 54.6561L374.783 53.8635L373.311 52.2782C377.84 50.1267 382.823 49.2208 387.805 49.5605C389.504 49.5605 391.316 49.2208 393.014 48.7678C393.127 48.7678 393.241 48.5414 393.467 48.5414C395.052 48.4281 396.525 47.7487 397.77 46.7296C399.582 45.484 401.733 43.8987 403.772 46.8428C404.111 47.409 405.357 47.409 406.15 47.6355C408.754 47.5222 411.472 47.5222 414.076 47.7487C414.982 47.8619 415.775 49.5605 416.567 50.5796L405.583 54.4297V54.8826C406.263 54.8826 407.055 54.9958 407.848 54.9958C408.641 54.9958 409.66 55.2223 410.226 54.8826C412.717 53.0708 415.209 54.2032 417.813 54.4297C418.832 54.5429 419.964 53.8635 420.87 53.9767C422.116 54.3164 423.135 54.7694 424.154 55.562C426.079 56.9209 428.684 56.3547 430.722 54.3164C431.288 53.9767 431.854 53.7502 432.534 53.8635C434.912 54.2032 437.403 54.6561 439.894 54.9958C439.554 57.8268 439.781 60.2047 443.404 60.318L444.424 58.7326H456.766C456.2 57.8268 455.974 57.3738 455.521 56.6944C458.465 56.4679 461.522 55.562 464.013 56.2415C466.844 57.0341 469.902 56.3547 472.733 58.5062C474.544 59.865 477.828 59.7518 480.433 59.7518C483.037 59.7518 485.755 59.2988 487.68 62.1297C488.133 62.8092 489.718 62.6959 490.737 62.6959C492.436 62.8092 494.021 62.8092 495.72 62.6959C496.965 62.5827 498.098 62.243 499.343 62.0165C500.136 62.0165 500.815 62.0165 501.608 62.0165L502.061 62.8092L500.589 63.2621L500.702 63.7151L504.665 64.9607L503.873 61.9033C508.289 62.4695 512.705 62.243 516.555 63.7151C520.405 65.1871 524.822 65.6401 527.086 69.6034C528.332 67.7916 529.464 68.018 534.107 70.849C532.635 72.0946 530.144 72.2078 529.691 74.4725C528.105 74.0196 526.52 73.5666 524.935 73.0005C524.142 72.774 523.349 72.321 522.557 72.0946C521.877 71.8681 521.311 71.6416 520.745 71.4151C520.405 71.0754 520.066 70.7357 519.726 70.2828C519.613 70.7357 519.499 71.3019 519.273 71.7549C519.273 71.9813 519.16 72.2078 519.16 72.5475L514.743 74.1328C516.102 75.3784 517.348 76.7373 517.008 78.7755C511.007 77.7564 507.157 81.0402 502.74 83.8712C501.382 82.2858 499.683 82.1726 497.758 83.4182C497.079 83.7579 496.399 83.7579 495.72 83.7579C492.549 83.5315 492.096 86.4756 489.945 88.1741L491.87 88.5139C491.983 89.7595 492.209 91.0051 492.323 92.2507C490.171 92.3639 489.492 93.383 490.737 95.3081C489.605 96.4404 486.548 95.5345 487.567 98.7051C483.943 98.139 485.189 102.668 482.245 103.461C481.339 98.3654 478.508 93.4963 482.358 89.08C487.001 85.9094 491.417 83.305 494.248 78.6623L493.795 78.0961C493.342 78.2093 492.323 78.4358 492.323 78.549C492.436 80.2476 491.077 80.4741 490.058 80.927C489.039 81.38 487.34 83.9844 486.774 80.3608C485.302 80.2476 483.717 80.3608 482.358 80.7005C481.225 81.2667 480.206 82.1726 479.527 83.1917C479.187 83.6447 479.3 84.5506 479.074 85.5697L473.525 86.3624L474.658 84.6638C471.827 84.8903 469.222 85.5697 466.844 85.1168C461.296 83.9844 458.238 87.4947 454.728 90.4389C453.03 91.9109 451.331 93.383 449.859 94.6286C450.538 95.5345 451.331 96.3272 452.124 97.0066C452.803 97.2331 453.482 97.3463 454.162 97.1198C454.955 96.8934 455.974 95.9875 456.427 96.2139C457.333 96.6669 458.691 98.0257 458.465 98.5919C457.559 102.442 458.238 106.632 455.747 110.142C453.596 113.313 451.444 116.483 449.293 119.541C448.047 121.126 445.896 121.579 444.197 120.447C443.178 122.032 440.913 122.598 440.8 125.202C440.687 126.335 438.649 127.241 438.309 128.373C439.215 130.638 440.007 132.903 440.687 135.167C441.479 138.791 437.969 138.678 435.591 140.036C435.818 137.659 436.044 135.62 436.044 133.469C436.044 132.903 435.478 131.883 435.138 131.883C432.194 132.223 433.666 130.525 433.893 129.392C434.006 129.053 434.119 128.713 434.346 128.486C432.194 127.241 430.382 127.354 428.91 129.619L428.231 129.166L429.25 125.542C426.985 125.089 426.419 127.354 424.947 128.26C424.607 128.486 424.381 128.939 424.041 129.166C423.588 129.392 423.135 129.505 422.569 129.619C422.909 130.185 423.248 130.751 423.588 131.204C423.928 131.657 424.494 132.45 424.607 132.563H430.609L425.173 137.319L429.023 146.604L427.325 147.963L430.043 148.416C428.91 150.794 427.665 153.059 426.532 155.437C425.74 157.248 424.834 159.06 423.701 160.646C422.229 162.344 421.21 164.609 418.266 164.835C416.341 165.175 414.529 165.968 412.944 166.987C412.151 167.44 411.585 168.346 410.792 169.251C410.679 168.572 410.566 167.893 410.453 166.987C407.735 166.647 405.244 168.346 404.564 171.063C403.772 174.8 406.716 176.952 408.754 179.216L412.151 178.31L412.491 178.877C411.811 179.669 411.132 180.462 410.566 181.368C410.226 181.821 410 182.387 409.886 182.953C410.113 186.35 410.339 189.521 406.263 191.219C405.13 191.672 404.564 193.711 403.319 194.843V192.352L396.524 184.312C396.185 184.652 395.958 184.991 395.732 185.444C395.619 186.35 395.505 187.369 395.279 188.275C393.58 191.672 395.845 194.503 396.524 197.561C396.751 198.806 398.789 199.599 399.469 200.845C400.148 202.203 400.601 203.675 400.941 205.261C401.507 207.073 401.733 208.998 401.62 210.923C400.261 209.677 398.563 208.771 397.77 207.299C396.977 205.827 396.864 203.789 396.298 201.977C396.185 200.845 395.732 199.825 395.166 198.806C392.901 196.315 393.014 193.371 393.467 190.313C394.26 185.558 391.995 181.255 391.429 176.499C389.844 177.857 389.391 180.235 386.673 178.877C388.371 175.027 386.22 172.196 384.182 169.251C383.502 168.006 383.163 166.76 382.936 165.401C381.124 165.741 379.313 166.081 377.501 166.534C376.821 166.647 375.915 167.1 375.802 167.553C375.123 171.063 371.726 172.422 370.027 175.14C368.895 176.838 366.97 178.084 365.837 179.783C365.384 180.915 365.158 182.16 365.384 183.293C365.724 188.162 364.139 192.918 360.968 196.542C358.817 191.672 357.118 186.577 355.873 181.368C354.627 176.272 353.834 170.95 353.042 166.421C352.702 166.76 351.909 167.779 351.23 168.685L347.606 165.515L349.192 164.949C347.38 162.91 345.568 160.872 343.643 158.721C340.699 158.721 337.302 158.834 333.905 158.721C330.508 158.607 330.394 158.154 329.262 155.323C326.205 156.909 322.581 155.663 320.996 152.719C320.883 152.492 320.769 152.153 320.656 151.926C320.43 151.473 320.316 151.02 320.09 150.567C318.505 147.51 318.052 147.51 315.9 150.001C317.259 152.945 318.731 156.003 320.09 158.834L320.996 156.569C321.222 157.815 321.449 158.381 321.562 158.947C321.675 159.853 321.902 160.646 322.015 161.551C323.374 161.325 325.072 162.571 326.091 160.419C326.884 159.173 327.79 157.928 328.809 156.909C328.809 157.928 328.922 159.06 329.149 160.079C329.375 160.872 329.941 161.551 330.734 162.004C334.358 163.816 334.924 166.421 332.206 169.365C331.753 169.931 331.413 170.497 331.074 171.177C330.734 171.743 330.394 172.422 329.941 172.988C328.356 174.913 326.431 176.385 324.28 177.518C321.902 178.877 319.977 180.915 317.712 182.5C315.56 183.859 313.296 184.991 310.918 186.124C309.672 186.803 308.993 186.237 308.766 184.878C308.087 180.915 308.087 176.838 305.709 173.328C304.803 172.196 304.123 170.95 303.331 169.704C302.878 168.572 302.538 167.326 302.198 166.194C301.632 164.609 300.953 163.023 300.273 161.438C299.368 159.513 298.462 157.588 297.556 155.663C296.99 154.531 296.31 153.512 295.857 152.606L292.347 153.625L292.12 152.945L293.932 151.587L290.309 147.737C290.762 147.51 291.667 146.491 292.573 146.491C294.951 146.378 295.631 145.019 296.084 143.207C296.763 140.263 297.443 137.432 298.235 133.695L294.272 135.507C294.159 135.507 294.159 135.62 294.045 135.62C292.46 135.281 290.195 134.035 289.516 134.601C287.364 136.526 286.232 134.261 284.987 133.695C283.967 133.242 283.401 131.544 282.722 130.525C282.835 129.279 282.948 127.807 283.062 125.995C281.476 125.089 281.476 125.089 279.664 126.788C279.325 127.128 278.306 126.788 277.286 126.675C277.966 127.694 278.645 128.713 279.211 129.732C279.551 130.411 279.664 131.204 279.438 131.997C278.872 133.129 278.306 134.375 277.513 135.394C275.814 131.657 272.417 128.713 272.417 123.957C272.417 122.938 270.945 121.579 269.813 120.9C268.001 119.767 265.963 119.088 265.397 116.71C265.283 116.483 264.491 116.483 264.264 116.257C263.925 115.804 263.698 115.238 263.472 114.785C261.094 115.464 260.754 116.483 262.566 118.635C263.245 119.427 263.698 120.56 264.377 121.352C264.83 121.919 265.397 122.598 265.963 122.711C268.228 123.164 269.247 125.202 270.945 126.335C271.058 126.448 271.058 126.788 271.172 127.241L268.228 125.995C268.567 127.128 268.794 127.92 269.133 128.939L267.322 131.43C268.454 127.354 265.397 125.882 262.792 124.07C261.32 122.825 260.074 121.352 258.942 119.88C258.263 119.088 257.583 118.182 256.904 117.276C255.885 117.842 254.979 118.408 254.186 119.201C253.28 120.22 251.808 120.447 250.563 119.88C249.204 119.314 247.618 119.201 247.845 121.692C247.845 122.485 246.713 123.391 246.033 124.183C245.014 125.316 243.768 126.335 242.863 127.58C242.523 128.033 242.863 129.053 242.863 130.298C241.73 133.695 237.88 134.261 233.917 135.167L232.332 133.129L229.727 133.469C227.123 129.166 230.746 124.636 228.595 120.22C232.445 117.955 236.295 119.767 240.258 119.427C240.485 117.276 242.07 115.011 240.145 112.86C238.56 111.388 237.087 109.802 235.729 108.104L240.371 108.33C240.258 107.538 240.258 106.858 240.145 106.179C242.07 107.085 244.448 106.292 245.354 104.367C245.354 104.254 245.354 104.254 245.467 104.141C245.693 103.688 246.373 103.348 246.826 103.008C248.071 101.876 249.204 100.63 250.902 98.9316L256.111 96.7801C256.111 95.9875 256.111 95.3081 255.998 94.5154C254.752 90.6654 254.752 90.6653 258.263 88.7403Z" fill="#EAEAF5"/>
<path d="M53.1918 118.636H55.9095C54.8904 116.145 52.9653 115.126 51.0403 114.22C47.6432 112.634 45.7182 109.803 44.3594 106.406C44.0196 105.5 42.6608 105.161 41.9814 104.595L41.4152 106.293C40.5093 104.142 37.7916 103.236 39.8299 100.631C39.9431 100.518 38.4711 98.4798 38.0181 98.4798C35.6401 98.9327 34.0548 97.6871 32.243 96.668C31.1107 96.1018 29.7518 95.6489 28.5062 95.4224C25.5621 94.8562 22.6179 94.4033 19.5606 93.8371L19.787 95.1959L13.559 96.7812L14.012 93.4974L10.3884 96.5548C11.0678 97.9136 5.17951 103.009 1.44271 104.028L2.68831 105.161L2.57507 105.953C-0.255842 103.462 -2.63381 105.953 -5.46472 105.84C-4.10588 105.161 -2.86028 104.368 -1.50144 103.689C-0.0293703 103.122 1.32947 102.33 2.68831 101.537C3.93391 100.405 4.95304 99.1592 5.97217 97.8004H-1.16173L-1.72792 94.8562C-5.57796 97.5739 -5.35149 93.0444 -7.38974 92.2518C-6.37062 88.2885 -2.74705 88.8547 0.083868 87.9488L-0.36908 85.7973C-4.55883 86.137 -5.57796 87.4958 -10.1074 83.9855C-9.08829 83.6458 -8.1824 83.4193 -7.38974 83.0796C-6.59709 82.7399 -5.6912 82.287 -4.89854 81.834C-3.42647 83.759 -2.18086 83.759 -0.0293684 82.287L-9.08829 78.6634C-7.72945 78.0972 -6.9368 77.8707 -6.14414 77.531C-5.12501 77.0781 -4.10589 76.3987 -3.08676 75.9457C-1.0485 75.153 0.989759 74.3604 3.14125 73.681C6.53835 72.5486 9.93545 73.3413 13.4458 74.1339C16.1635 74.5869 18.9944 74.9266 21.712 75.1531C25.9018 75.3795 30.0915 76.1722 34.1681 77.531C35.074 77.7575 36.0931 77.8707 36.999 77.984C36.8857 74.7001 39.4902 77.3046 40.6226 76.3987C41.7549 75.4928 43.6799 75.3795 45.3785 75.3795L40.2828 77.4178L40.6226 78.0972L48.5491 74.7001L51.1535 76.9648L52.9653 75.4928L53.8712 77.0781C55.1168 75.0398 56.7021 75.7192 58.4007 76.1722C60.7786 76.7384 63.1566 77.0781 65.5346 77.531C66.3272 77.6443 67.0067 77.984 68.139 78.2104L66.667 79.3428L66.7802 79.909C68.7052 79.6825 70.517 79.5693 72.442 79.5693C74.1406 79.7958 75.7259 80.2487 77.4244 80.8149L77.198 79.0031C79.0098 79.0031 80.7083 78.8899 82.2936 79.0031C85.351 79.2296 88.4084 80.5884 91.4658 78.6634C92.032 78.3237 93.7305 79.5693 95.0893 80.1355L97.807 77.984L93.6173 74.8133C93.2775 73.228 94.0702 71.8692 96.2217 71.6427C97.9202 71.5295 100.185 74.1339 99.8453 75.9457L102.45 76.3987L102.11 79.1163L104.375 76.3987L106.866 81.6075L110.829 75.9457L115.019 76.7384V80.8149L115.585 81.4943L111.622 82.4002L112.981 84.4384L108.451 81.9472C108.904 84.0987 107.885 84.6649 106.413 84.4384C105.054 84.0987 103.695 83.8723 102.336 83.8723L107.772 85.4576C106.073 86.2502 104.941 86.8164 103.695 87.3826C103.129 87.6091 102.563 87.9488 102.11 88.4017C100.072 91.0062 95.882 91.9121 96.1085 96.2151C96.1085 96.8945 96.6746 97.9136 97.1276 98.0268C99.1658 98.4798 99.2791 99.8386 99.1658 101.65C101.77 100.178 103.695 101.764 105.96 102.896C108.564 104.142 111.282 105.161 114 105.953C114.226 107.652 113.887 110.256 116.378 111.842C116.831 112.181 117.737 112.748 117.85 112.634C118.529 111.955 119.435 111.162 119.435 110.483C119.209 109.011 118.869 107.652 118.416 106.293C119.775 105.047 122.04 104.028 122.379 102.556C122.719 101.084 121.02 99.2724 120.115 97.3474C122.379 95.7621 120.001 93.2709 120.341 90.7797C124.871 89.5341 128.721 91.7988 132.571 93.8371C131.778 95.4224 132.571 97.3474 134.156 98.1401C134.382 98.2533 134.722 98.3665 135.062 98.3665C138.006 99.1592 138.346 95.9886 139.591 94.29C140.837 95.9886 142.083 97.6871 143.215 99.3857C143.781 100.405 143.555 102.217 144.347 102.896C145.933 104.142 147.744 105.274 149.556 106.18L148.197 107.086C149.33 107.199 150.349 107.425 151.368 107.878C152.047 108.445 152.5 109.237 152.613 110.03C152.5 110.823 152.047 111.389 151.368 111.728C147.744 113.54 144.347 115.805 139.818 114.673C136.874 113.993 134.949 116.598 132.91 118.523C134.043 117.956 135.288 117.504 136.534 117.051C137.44 116.824 138.459 116.711 139.365 116.824C139.591 116.824 140.044 118.07 139.818 118.183C138.006 119.881 138.572 121.354 140.271 122.486C142.535 124.071 143.328 123.958 144.913 121.693C145.14 121.354 145.48 121.127 145.819 121.127L145.253 123.165L146.272 122.599L146.612 123.279L138.119 127.808L137.553 127.695L139.252 123.958C136.534 125.204 133.816 126.562 131.212 128.148C130.532 128.601 130.872 130.412 130.759 131.658L131.438 131.998C130.646 132.224 129.853 132.451 129.06 132.564C127.022 132.564 125.776 133.13 125.55 135.621C125.437 136.98 124.191 138.226 123.285 139.811L122.379 136.301C122.266 137.66 122.266 139.018 122.379 140.491C123.285 144.794 123.172 145.36 119.435 147.511C117.284 148.757 114.679 152.607 115.132 154.192C115.698 156.457 116.491 158.722 116.944 160.986C117.057 162.232 116.944 163.478 116.718 164.61L115.472 164.723L111.735 154.985L109.697 155.891C107.885 152.833 105.281 154.758 102.903 154.645C103.129 155.211 103.356 155.777 103.922 156.91C101.77 156.457 100.072 156.23 98.4864 155.777C97.2408 155.438 96.2217 155.438 95.429 156.797C95.0893 157.476 94.1834 157.816 93.504 158.382C92.8246 158.948 92.1452 159.401 92.1452 159.967C92.0319 164.044 91.9187 168.12 92.1452 172.197C92.2584 173.556 92.8246 174.914 93.6173 175.934C94.4099 176.953 95.882 178.198 96.9011 178.085C98.7129 177.745 101.317 178.312 101.884 175.141C102.45 171.97 103.469 171.517 107.206 171.97C106.413 175.594 105.507 179.217 104.601 183.067C105.847 183.067 106.979 183.067 108.225 182.841C111.282 182.501 112.641 183.86 112.188 186.918C111.622 190.654 111.056 194.618 115.359 196.996C118.869 195.297 118.869 195.297 121.7 198.241C122.493 198.921 123.285 199.374 124.191 199.826C125.097 194.957 129.174 193.712 132.797 191.447C132.457 193.485 131.212 195.41 132.457 197.222L134.269 192.24C136.194 193.146 137.78 193.938 139.478 194.731C141.177 195.523 142.988 195.071 144.913 194.731C146.838 194.391 147.518 196.203 148.763 197.109C149.216 197.449 149.556 197.901 149.896 198.354C150.575 199.26 151.368 200.053 152.274 200.732C153.406 201.638 154.652 202.318 156.011 202.544C160.653 202.771 162.805 204.016 163.937 208.432C165.07 212.622 168.014 214.321 171.637 215.227C173.223 215.566 174.015 216.133 173.675 217.605C177.412 217.718 181.149 216.925 183.754 220.436C183.98 220.775 184.32 221.002 184.659 221.115C186.924 221.228 188.736 223.153 188.623 225.418C188.623 225.531 188.623 225.644 188.623 225.758C188.509 227.683 186.924 229.608 185.679 231.419C184.659 233.005 183.301 234.364 182.168 235.949C182.055 236.289 181.942 236.515 181.942 236.855C181.829 239.799 181.489 242.743 180.923 245.687C180.243 247.726 179.337 249.764 178.205 251.689C177.865 252.142 177.412 252.368 176.846 252.595C174.581 253.501 172.203 254.18 169.939 255.086C168.014 255.992 167.334 257.464 167.108 259.729C166.995 261.767 165.522 263.805 164.73 265.843C164.39 266.523 164.05 267.315 163.484 268.335L163.031 265.957C160.653 270.713 158.728 276.035 151.934 271.505C152.84 273.091 153.406 273.996 153.972 275.016C154.765 276.374 154.312 278.186 152.953 278.979C152.613 279.205 152.274 279.319 151.934 279.319C150.122 279.771 148.311 279.998 146.385 280.338C146.612 283.735 145.819 284.301 141.856 283.169C143.668 287.585 141.29 290.189 137.78 292.227C138.232 292.794 138.799 293.247 139.365 293.586C141.29 294.605 141.29 294.945 139.591 296.417C138.346 297.436 136.647 298.569 136.421 299.928C136.194 301.739 136.647 303.438 137.666 305.023C138.346 306.156 140.157 306.722 141.743 307.628C139.138 307.854 136.534 308.76 134.269 308.194C131.778 307.514 129.513 306.156 127.701 304.231C126.569 302.985 126.343 300.607 126.116 298.682C125.89 296.757 125.55 294.832 127.928 293.813L126.116 293.586C126.796 291.775 127.475 290.076 128.268 288.264L128.721 288.377L129.06 290.529H129.4C129.74 288.717 129.966 287.019 130.419 284.98C128.154 284.754 128.154 283.395 128.947 281.697C129.06 281.47 129.513 281.017 129.4 280.904C127.815 277.394 130.985 275.016 131.438 272.071C131.891 269.127 132.004 266.296 132.457 263.352C132.91 259.615 133.59 255.879 134.043 252.142C134.269 249.99 134.722 247.612 134.156 245.574C133.59 243.876 132.344 242.517 130.759 241.837C125.89 240.139 124.644 235.836 122.719 231.986C121.247 228.928 120.454 225.644 117.85 223.153C116.831 222.134 116.831 220.322 117.85 219.303L117.963 219.19C118.529 218.624 118.982 218.058 119.322 217.378C117.51 216.812 117.057 215.566 117.963 214.094C119.095 212.056 120.341 210.131 121.7 208.319C123.851 205.715 123.738 203.563 121.247 201.525C120.341 200.732 119.888 199.26 119.209 198.128C118.869 197.562 118.643 196.996 118.303 196.429H117.623L117.057 200.053C116.831 199.94 116.265 199.487 115.698 199.034C115.245 198.694 114.792 198.354 114.226 198.128C113.207 197.901 112.075 197.901 112.188 196.429C112.188 196.316 112.075 196.316 112.075 196.203C109.697 195.523 109.357 193.372 108.564 191.447C107.659 189.295 105.734 187.823 103.582 187.484C101.204 187.031 99.9585 185.445 98.7129 183.86C97.6938 182.615 96.6746 181.822 94.9761 183.067C94.1834 183.407 93.2775 183.294 92.5981 182.954C88.9746 180.916 85.4642 178.764 82.0671 176.5C81.2745 175.934 80.8215 175.028 80.8215 174.122C81.3877 171.517 80.2553 169.592 78.8965 167.667C77.198 165.176 75.2729 162.798 73.6876 160.194C72.3288 157.929 71.3097 155.551 69.9508 153.286C69.4979 152.494 68.3655 152.154 67.5729 151.474L66.8934 151.927C67.6861 153.513 68.4788 155.098 69.2714 156.683C70.6302 159.401 72.1023 162.232 73.4612 164.95C73.8009 165.516 74.1406 166.082 74.4803 166.648C74.82 167.214 75.0465 168.233 75.3862 168.913L74.3671 169.366C73.4612 167.214 72.3288 165.063 71.0832 163.025C70.1773 162.005 69.0449 161.1 67.9126 160.307C68.0258 158.835 68.3655 157.702 68.0258 157.363C65.5346 155.098 65.0816 151.814 63.7228 148.983C63.3831 148.304 62.8169 147.398 62.2507 147.171C58.5139 146.266 58.061 142.755 56.4757 140.151C55.683 139.018 55.1168 137.773 54.6639 136.527C53.758 133.357 53.5315 129.96 53.9845 126.676C53.758 124.184 53.305 121.467 53.1918 118.636Z" fill="#EAEAF5"/>
<path d="M272.645 272.976C270.946 272.184 270.04 270.372 270.38 268.56C270.607 266.862 269.248 264.597 268.002 263.125C265.964 260.747 264.831 257.689 264.945 254.632C264.831 251.348 263.246 248.857 261.774 246.366C259.283 242.176 260.981 238.552 262.68 234.929C263.473 233.343 264.152 232.098 263.02 230.513C262.793 230.06 262.68 229.607 262.68 229.154C263.02 225.53 261.774 221.907 259.283 219.302C256.339 216.358 256.339 213.301 257.471 209.677C257.698 208.431 257.471 207.186 256.792 206.167C256.112 205.487 255.206 205.148 254.3 205.261C252.489 205.374 251.243 205.487 250.564 203.336C249.771 200.845 247.62 201.977 245.921 202.203C244.336 202.656 242.75 203.223 241.165 203.902C240.372 204.128 239.58 204.242 238.787 204.242C236.749 204.242 234.711 204.468 232.672 204.808C231.2 205.261 230.068 205.261 228.935 204.242C227.01 202.77 225.085 201.184 223.274 199.486C221.688 197.561 220.33 195.523 219.084 193.371C218.744 192.918 218.178 192.692 217.838 192.239C217.499 191.786 216.932 191.22 216.932 190.653C216.593 188.162 216.819 185.671 217.499 183.18C218.065 181.481 218.178 178.877 217.385 177.518C215.8 175.14 217.385 173.668 218.178 171.969C219.31 169.591 220.782 167.327 222.141 165.062C222.481 164.609 223.047 164.156 223.613 164.043C225.991 163.363 227.577 162.231 227.577 159.287C227.577 157.362 228.596 155.663 230.294 154.757C231.766 153.965 232.786 152.266 234.144 150.907C236.749 153.059 239.58 151.926 242.524 150.794C244.336 150.001 246.261 149.548 248.299 149.209C251.017 148.869 253.848 148.756 256.678 148.643C257.811 148.756 258.83 148.869 259.849 149.096L258.151 154.191C259.396 156.682 262.567 155.324 264.945 156.343C265.171 156.456 265.737 156.343 265.737 156.456C266.304 159.287 269.134 158.607 270.833 159.853C272.532 161.099 273.098 160.079 273.211 158.494C273.437 156.229 275.136 155.324 277.287 156.116C279.665 157.135 282.157 157.928 284.761 158.721C286.007 158.947 287.366 158.834 288.611 158.494C290.31 158.041 291.442 157.815 292.235 159.966C293.254 162.797 294.386 165.628 295.632 168.459C296.651 170.724 298.689 172.649 298.916 174.913C299.255 178.537 301.747 181.141 302.766 184.312C303.105 185.218 303.785 186.124 304.464 186.803C305.71 188.162 307.295 189.181 308.428 190.653C309.107 191.446 308.994 192.692 309.56 193.597C310.013 194.164 310.579 194.503 311.258 194.39C314.429 193.711 317.6 192.805 321.11 191.899C320.884 193.484 320.884 195.183 320.204 196.542C317.6 201.524 315.335 206.393 310.692 210.13C307.182 212.961 305.03 217.377 302.2 221.227C301.973 221.567 301.86 222.473 302.086 222.586C303.785 223.945 302.652 225.757 302.992 227.342C303.332 228.927 304.238 230.06 304.464 231.532C304.917 233.683 305.03 235.835 304.804 237.986C304.464 239.345 302.992 240.591 301.747 241.723C299.935 243.422 297.897 244.894 296.085 246.592C295.858 246.819 295.858 247.611 295.971 248.064C296.198 248.97 296.538 249.763 296.877 250.555C297.557 252.933 296.877 254.405 294.613 255.425C293.82 255.764 293.027 256.217 292.801 256.444C292.688 258.029 293.027 259.388 292.574 260.181C289.743 264.597 287.139 269.353 281.59 270.938C279.439 271.504 277.174 271.391 274.909 271.617C274.117 272.41 273.324 272.637 272.645 272.976Z" fill="#EAEAF5"/>
<path d="M156.465 77.7563L153.748 75.6048L159.523 72.6607V70.2827L154.654 68.4709L154.767 67.6783L159.863 68.3577L155.899 65.64C153.521 66.9989 152.842 66.5459 152.729 62.9223L154.314 62.8091C153.295 61.2238 152.389 59.8649 151.257 58.5061C148.199 54.6561 144.236 52.8443 139.254 54.2031C138.348 54.5428 137.442 54.6561 136.423 54.6561C135.403 54.4296 133.592 55.562 133.478 53.184C133.478 52.8443 131.553 52.731 130.534 52.3913V51.5987L135.403 51.259L127.137 48.881C127.703 48.4281 128.383 48.0883 128.949 47.8619C131.327 47.4089 133.818 47.1825 136.196 46.7295C137.555 46.503 139.48 46.3898 139.48 44.0118H135.97L135.856 43.1059L143.896 41.0677L144.009 39.5956C144.236 39.4824 144.349 39.3691 144.462 39.4824C146.727 40.275 148.652 38.5765 150.804 38.4632C152.049 38.4632 153.295 38.9162 154.201 39.8221C154.88 40.3883 156.126 37.8971 157.711 39.2559C158.051 39.4824 158.843 39.2559 159.523 39.2559L158.617 37.6706L166.996 39.8221L167.223 39.1426C166.544 39.0294 165.864 38.9162 165.185 38.6897C164.732 38.4632 164.392 38.0103 164.279 37.5573C164.279 37.2176 164.958 36.6514 165.298 36.6514C167.449 36.425 169.488 36.425 171.639 36.1985C173.111 36.0853 174.583 35.6323 176.169 35.6323C182.057 35.7456 187.945 35.7456 193.834 36.0853C196.438 36.3117 199.042 37.3309 201.647 38.1235L195.306 39.1426L195.419 40.1618C195.985 40.1618 196.551 40.1618 197.117 40.1618C198.137 40.0486 199.156 39.9353 200.288 39.8221L199.042 41.8603C201.76 41.5206 204.365 40.9544 207.082 40.275C210.026 39.1426 213.31 39.3691 216.028 40.8412C210.932 43.2192 205.384 44.8045 202.213 49.6737C203.345 49.5604 204.591 49.6736 205.723 49.9001C206.403 50.2398 206.743 51.3722 207.422 52.3913L203.912 52.6178C203.685 54.0899 207.422 54.9958 204.591 56.9208L206.176 58.6193L202.553 59.1855L204.138 60.9973H198.476C197.344 62.4694 197.57 63.6017 199.722 64.3944C201.647 65.0738 202.553 66.3194 202.1 68.8106L197.231 66.7724L195.532 68.8106L201.647 69.49C197.117 72.0945 192.701 74.4725 187.606 74.6989C186.7 74.6989 185.794 75.7181 185.228 76.5107C183.076 79.4549 180.585 81.4931 176.735 81.0402C176.169 81.0402 175.036 82.2858 175.036 82.9652C175.036 85.0035 174.697 86.702 172.658 87.7211C172.432 87.8344 172.319 88.2873 172.205 88.627C171.752 90.4388 171.299 92.1374 170.96 93.9492C170.62 95.7609 169.601 95.308 168.582 94.855C167.11 94.2889 165.751 93.7227 164.392 92.93C163.486 92.3638 162.693 91.5712 162.127 90.6653C160.089 87.0417 158.277 83.1917 156.465 79.4549C156.465 79.1152 156.465 78.4357 156.465 77.7563Z" fill="#EAEAF5"/>
<path d="M462.543 236.968C463.335 237.534 464.128 238.326 464.694 239.119C465.374 240.138 465.827 241.271 465.827 242.516C465.713 245.234 467.752 246.253 469.337 247.612C469.677 247.838 469.903 248.065 470.129 248.405C470.696 249.763 471.715 251.009 472.847 251.915C474.772 253.16 475.905 255.878 476.81 258.256C478.283 261.766 477.377 265.503 475.791 268.447C474.206 271.392 472.507 274.109 471.941 277.393C471.828 278.186 465.94 279.884 465.147 279.545C464.694 279.318 464.354 279.092 463.901 278.865C460.957 280.677 457.56 279.431 456.201 276.034C455.522 274.789 454.729 273.656 453.823 272.637L452.918 273.317C453.144 272.184 453.37 271.165 453.597 269.693L450.313 273.317C449.294 271.618 448.728 269.58 447.369 268.787C445.67 267.768 443.632 267.428 441.707 267.542C438.989 267.768 436.385 268.561 433.894 269.693C431.969 270.599 430.497 271.844 428.119 271.505C426.76 271.392 425.175 272.184 423.929 272.977C422.57 273.996 420.645 273.77 419.513 272.524C419.173 271.958 419.06 271.392 419.06 270.712C419.173 269.58 419.739 268.447 419.513 267.542C418.947 265.503 418.267 263.465 417.361 261.427C416.908 260.408 416.229 259.388 417.361 258.143C417.588 257.916 417.022 257.124 416.908 256.671C416.682 254.972 415.889 252.821 416.682 251.688C417.701 250.216 419.966 249.65 421.664 248.744C424.155 247.385 428.006 248.405 429.138 244.668C429.251 244.102 429.251 243.535 429.478 243.082C429.704 242.629 430.044 242.176 430.383 241.724L431.289 242.403C432.535 240.818 433.894 239.346 435.253 237.874C436.951 236.401 437.97 237.307 438.536 239.912C439.329 238.666 440.348 237.421 441.367 236.288C442.387 235.496 443.406 234.816 444.538 234.137C444.878 233.797 445.331 233.457 445.557 233.004L451.898 234.59C449.407 238.326 449.407 238.326 453.144 241.044C453.823 241.61 454.503 242.063 455.296 242.516L458.013 244.215C458.466 241.724 458.806 239.799 459.146 237.874C459.485 235.948 459.825 233.797 460.165 231.759L460.957 231.646L462.543 236.968Z" fill="#EAEAF5"/>
<path d="M123.512 72.8873C123.738 70.0564 121.134 70.1696 119.888 68.8108C119.209 70.2829 118.869 71.8682 117.057 70.1696C116.718 69.8299 115.812 70.0564 115.246 70.0564C112.301 69.7167 109.244 69.377 106.3 69.0373C105.734 68.924 105.281 68.3578 104.488 67.9049L107.206 66.999C104.715 66.5461 102.563 66.3196 103.582 63.4887C104.488 60.8842 107.206 59.4122 109.923 60.2048C109.357 61.3372 108.451 62.4695 108.451 63.6019C108.451 64.7343 109.697 65.7534 110.49 66.7725C109.697 61.5637 110.15 60.771 113.773 60.2048C115.698 59.9783 116.491 60.9975 116.718 64.2813C119.775 62.4696 123.738 62.696 126.569 64.9607C127.362 65.3005 128.154 65.5269 129.06 65.6402C129.287 65.6402 129.627 65.5269 129.74 65.6402C131.438 66.4328 133.024 67.2255 134.609 68.2446C135.741 69.2637 136.76 70.3961 137.666 71.7549L135.515 72.2079L135.288 72.7741L145.027 78.0962L141.29 82.7389L136.534 78.5491L135.628 80.9271C137.44 82.6256 140.837 83.8712 140.158 88.1742L137.44 87.9478L138.685 90.7787C135.288 89.4198 131.891 89.1934 129.627 86.2492C128.381 84.4374 126.116 83.6448 123.965 84.3242C123.059 84.3242 122.153 84.2109 121.247 83.8712C121.36 83.0786 121.474 82.3992 121.7 81.6065C121.813 81.1536 121.926 80.7006 122.266 80.2477C122.719 79.6815 123.285 79.1153 123.851 78.7756C124.078 78.6624 124.757 79.3418 125.21 79.5683L123.625 81.6065L127.135 81.2668V80.7006L126.003 80.2477C126.569 78.3227 129.966 78.2094 128.834 75.4917C127.588 73.5667 125.55 72.5476 123.512 72.8873Z" fill="#EAEAF5"/>
<path d="M107.772 42.5406C105.507 43.8994 103.469 41.6347 100.978 39.8229C104.488 39.3699 107.998 38.5773 111.395 38.8038C114.792 39.0302 117.623 37.8979 120.681 37.1052C122.945 36.6523 125.323 36.6523 127.701 36.8787C132.004 36.992 136.307 37.1052 140.61 37.4449C141.969 37.6714 143.328 38.1243 144.574 38.6905C143.668 39.1435 142.875 39.7097 142.082 40.0494C138.346 41.6347 134.496 43.22 130.759 44.8053C129.966 45.145 129.06 45.3715 128.268 45.4847C126.116 45.7112 124.531 47.2965 124.191 49.3348L118.756 51.5995L121.134 52.9583C119.095 53.1848 117.51 55.1098 115.698 53.0716C115.472 52.8451 114.792 53.1848 114.339 53.298C110.716 53.9775 106.866 53.8642 103.242 52.8451L106.979 51.7127L106.526 50.4671L109.923 50.6936L110.15 50.1274L107.206 48.7686C108.904 46.0509 111.395 48.3156 113.547 47.8627L108.225 44.6921C108.451 44.4656 108.678 44.3524 108.904 44.1259C112.075 45.3715 114.906 43.4465 118.303 43.4465C115.019 41.295 111.509 44.0126 107.772 42.5406Z" fill="#EAEAF5"/>
<path d="M63.6148 69.3763L70.409 68.9233L70.5222 68.4704C69.1634 68.3571 67.8045 68.2439 66.3325 68.1307C64.8604 68.0174 63.6148 68.1307 62.2559 68.1307V67.338L65.0869 66.3189L61.2368 65.413C62.5957 62.3556 65.3133 61.9027 68.3707 61.4497L68.1443 63.1483C68.484 63.1483 68.8237 63.1482 68.9369 63.035C70.1825 61.7894 71.3149 62.2424 72.4472 63.2615C73.3531 64.0541 74.1458 61.4497 75.2781 62.9218C75.9576 63.8277 76.7502 64.6203 77.6561 65.2997L76.7502 61.4497H80.3738C81.1664 63.2615 81.5062 65.5262 82.865 67.1115C84.2238 68.6968 86.0356 69.1498 87.5077 70.5086L85.243 70.7351L86.2621 72.5469C84.79 72.5469 83.4312 72.8866 82.2988 72.4336C79.2414 71.3013 76.637 72.5469 73.9193 73.3395C72.4472 73.7925 70.1825 74.5851 69.0501 72.0939C68.9369 71.7542 68.031 71.7542 67.5781 71.641L63.728 70.5086L63.6148 69.3763Z" fill="#EAEAF5"/>
<path d="M468.882 224.058L467.07 225.417C469.108 227.455 470.92 229.38 472.732 231.192C470.467 230.852 467.976 230.399 466.504 227.795C465.258 225.757 462.994 225.87 461.975 227.908C461.635 228.927 460.503 229.607 459.37 229.154C459.03 229.041 458.804 228.927 458.578 228.588C457.105 226.889 455.52 226.889 452.916 227.682C453.935 226.323 454.388 225.643 454.954 224.851C454.614 223.039 453.255 221.567 451.444 221.114C449.632 220.774 447.933 220.208 446.235 219.529C445.669 219.302 445.329 218.51 444.876 217.83L446.801 217.037L442.158 214.773C443.064 214.32 444.083 213.98 445.102 213.64C446.235 213.301 447.48 213.867 447.82 214.999C447.82 215.112 447.933 215.226 447.933 215.339C448.273 216.471 448.613 217.604 449.066 218.623L449.858 218.736C450.198 218.17 450.538 217.717 450.991 217.151C452.463 215.905 453.708 214.773 455.973 216.471C457.672 217.83 460.503 217.717 462.428 218.849C464.579 220.548 466.844 222.246 468.882 224.058Z" fill="#EAEAF5"/>
<path d="M409.658 209.451L411.922 210.243L421.774 200.958L424.718 203.902C421.887 206.62 421.661 208.432 424.379 211.263C422.227 212.168 420.528 215.792 420.642 219.869L411.356 218.057C411.017 215.339 408.525 213.074 409.658 209.451Z" fill="#EAEAF5"/>
<path d="M310.242 240.817C315.111 241.043 315.337 236.627 318.168 234.589C319.753 235.948 320.093 238.326 318.961 240.137C318.734 240.364 318.848 240.817 318.734 241.27C317.489 245.913 316.243 250.555 314.771 255.198C314.318 256.67 312.733 257.349 311.261 256.896C310.921 256.783 310.581 256.557 310.355 256.33C308.883 255.085 308.656 251.574 309.449 249.649C309.902 248.29 310.242 246.818 310.242 245.346C310.355 243.874 310.242 242.402 310.242 240.817Z" fill="#EAEAF5"/>
<path d="M237.426 102.102L235.388 101.536C235.388 100.404 235.388 99.4978 235.388 98.5919C235.501 98.2522 235.727 97.9125 235.954 97.686C237.2 98.2522 237.879 97.3463 237.652 96.5536C237.426 95.761 236.294 95.308 235.501 94.7419C235.388 94.6286 235.048 94.6286 234.595 94.6286L234.935 93.1565C232.783 91.1183 231.991 89.6462 232.557 88.8536C233.802 87.155 236.407 86.0226 237.652 86.8153C239.577 88.0609 239.577 88.9668 238.219 91.458L243.541 98.7051C243.994 98.8184 244.447 98.9316 244.786 99.2713C245.013 99.4978 244.447 100.404 244.22 100.97L243.428 103.235L233.802 104.82L237.426 102.102Z" fill="#EAEAF5"/>
<path d="M404.45 223.153L401.732 222.926C399.581 219.869 397.316 216.472 394.938 213.188C392.56 209.904 390.409 206.847 387.917 203.336C392.9 203.903 394.825 207.866 397.996 210.131C400.147 211.829 401.846 213.981 403.091 216.359C403.431 216.925 404.563 217.151 405.243 217.491L404.45 223.153Z" fill="#EAEAF5"/>
<path d="M330.734 60.6579C326.771 60.7711 323.374 60.4314 320.883 57.9402C322.921 56.2417 324.959 54.4299 326.771 52.3916C328.809 49.9004 331.754 49.4475 334.471 48.6548C337.189 47.8622 340.359 47.8622 343.417 47.4092C344.776 47.0695 346.135 46.7298 347.493 46.2769L347.946 47.1828C347.267 47.6357 346.588 48.0887 345.795 48.4284C342.964 48.9945 340.02 49.1078 337.415 50.0137C333.792 51.2593 330.621 53.4108 328.13 56.3549C327.79 56.8079 328.13 58.1667 328.583 58.7329C329.036 59.2991 329.715 59.8652 330.734 60.6579Z" fill="#EAEAF5"/>
<path d="M202.443 85.4567L198.932 84.4375L202.103 82.8522H198.593L198.253 82.3993L201.424 80.5875L201.197 79.7948L203.009 82.1728L210.369 80.361L210.596 79.5684C211.841 80.7007 213.313 81.6066 214.106 82.9655C215.125 84.7772 212.974 85.3434 212.068 86.1361C210.822 87.042 209.35 87.7214 207.878 88.0611C206.972 88.2876 205.953 88.2876 204.934 88.0611C203.462 87.7214 202.103 87.1552 200.631 86.8155L202.443 85.4567Z" fill="#EAEAF5"/>
<path d="M449.067 138.224L443.179 139.696C444.877 136.752 445.896 136.299 450.313 136.299C450.652 135.62 451.105 134.94 451.445 134.261C451.785 133.581 452.011 133.015 452.011 133.015C453.03 132.902 454.049 133.129 454.276 132.789C455.182 130.977 455.861 129.052 456.541 127.24C456.994 125.995 456.541 124.183 458.805 124.296C460.164 126.221 460.164 128.599 458.919 130.524C458.239 131.996 457.899 133.581 458.126 135.167C458.352 137.771 456.088 137.771 455.069 137.998C453.03 138.564 451.445 139.017 450.766 141.395L449.973 141.282L449.067 138.224Z" fill="#EAEAF5"/>
<path d="M52.7368 58.3931C57.3795 58.5063 61.5693 58.7328 65.9855 60.4313C63.6075 61.9034 61.7957 63.0358 59.984 64.1681C58.3986 65.1873 56.9266 66.3196 55.681 67.2255L51.4912 64.5079C51.8309 62.8093 54.3221 61.3372 52.7368 58.3931Z" fill="#EAEAF5"/>
<path d="M97.8085 47.5218L99.1674 46.3894L93.9585 45.3702C94.9776 42.7658 96.11 41.1805 98.7144 41.5202C99.3939 41.7467 99.96 41.9732 100.639 42.1996C101.319 42.5393 102.112 42.6526 102.904 42.7658C103.923 43.785 104.829 45.3703 106.415 43.8982L108.679 45.8232C105.848 49.56 102.678 50.1262 97.8085 47.5218Z" fill="#EAEAF5"/>
<path d="M259.395 40.7286L267.322 41.408L266.529 39.5962L279.778 44.9183L279.665 45.8242H274.909C274.682 45.1448 274.569 44.4654 274.116 44.1257C273.55 43.8992 272.984 43.8992 272.418 44.1257C271.059 45.0315 269.7 46.1639 268.115 47.4095L264.378 46.3904L265.963 45.5977L263.585 45.3712L263.472 44.9183L266.416 43.7859L266.303 43.2198C265.057 43.4462 263.585 44.0124 262.453 43.6727C261.32 43.333 260.188 42.2006 259.056 41.408L259.395 40.7286Z" fill="#EAEAF5"/>
<path d="M99.5044 53.5232L101.429 52.957V54.2026C106.865 57.9394 112.753 54.3159 118.415 56.0144C117.283 58.3924 115.584 58.7321 113.432 58.1659C112.64 58.1659 111.96 58.1659 111.168 58.2791C107.884 58.2791 104.6 58.1659 101.203 57.9394C100.637 57.9394 100.071 56.8071 99.8441 56.1276C99.6176 55.335 99.5044 54.4291 99.5044 53.5232Z" fill="#EAEAF5"/>
<path d="M65.5328 55.5617C65.3063 55.5617 65.0798 55.6749 64.8533 55.6749C64.6269 55.6749 64.4004 55.6749 64.1739 55.6749C64.1739 55.4485 64.1739 55.3352 64.1739 55.222C66.5519 52.1646 69.1563 53.9764 71.6475 54.8823C72.7799 55.222 73.799 55.6749 75.4976 56.2411L74.0255 53.297L75.6108 52.2778C75.8373 52.5043 76.0638 52.5043 76.177 52.7308C76.7432 54.0896 77.0829 55.4484 79.1211 54.4293C79.3476 54.3161 80.48 54.8823 80.5932 55.222C80.7065 55.5617 80.2535 56.694 79.8006 56.694C76.0637 57.3735 72.4402 57.9397 68.7034 58.5058C68.5901 58.5058 68.3637 58.2794 67.7975 57.8264L71.5343 56.9205V56.3544L63.268 57.0338L63.1548 56.694L65.646 55.7882L65.5328 55.5617Z" fill="#EAEAF5"/>
<path d="M496.962 292.112L507.153 283.279C507.606 283.506 508.059 283.732 508.399 284.072C508.739 284.412 509.078 285.204 508.965 285.318C507.833 286.45 507.833 288.601 505.794 288.941C505.341 289.054 504.888 289.394 504.662 289.734C501.831 293.697 501.831 293.697 496.962 292.112Z" fill="#EAEAF5"/>
<path d="M428.683 216.358L430.495 220.321L428.91 221.454C428.344 220.208 427.664 218.963 427.098 217.717C427.098 221.794 427.098 222.02 425.739 222.926C425.399 221.454 425.06 219.982 424.72 218.396L424.267 218.51C425.06 215.905 425.739 213.414 426.532 210.696C428.91 210.357 431.741 212.961 434.005 209.564C433.213 212.168 432.986 212.282 430.835 212.168C429.702 211.942 428.57 211.942 427.551 212.168C425.286 212.848 426.758 214.093 427.211 214.999L431.175 213.64L431.401 214.207L428.683 216.358Z" fill="#EAEAF5"/>
<path d="M227.124 100.516V96.6663C228.03 95.7604 228.936 95.081 229.615 94.2884C230.861 92.8163 232.219 93.8354 233.352 94.4016C234.484 94.9678 234.258 95.8737 233.125 96.5531C232.899 96.6663 232.899 97.006 232.899 97.3458C232.786 98.2516 233.125 99.7237 232.786 99.9502C231.2 100.743 229.502 101.422 227.69 101.762C227.35 101.875 226.897 101.083 226.444 100.743L227.124 100.516Z" fill="#EAEAF5"/>
<path d="M93.0515 60.6571L91.4662 62.016L93.8441 63.0351C94.5235 65.5263 92.0323 65.4131 91.0132 66.4322C90.7867 66.5454 89.6544 65.7528 88.975 65.2998L84.8984 62.9218L85.1249 62.1292L88.6352 62.8086L86.7102 60.7704C88.975 59.185 91.4662 58.9586 93.0515 60.6571Z" fill="#EAEAF5"/>
<path d="M463.109 106.858L461.071 106.971C461.298 109.123 461.524 111.161 461.751 112.973H459.712C460.958 107.424 458.014 101.423 461.071 95.3081L463.109 106.858Z" fill="#EAEAF5"/>
<path d="M404.334 223.265C405.693 223.718 407.165 224.171 408.524 224.397C410.789 224.623 413.167 224.623 415.545 224.737C416.111 224.737 416.677 224.85 417.13 225.19L415.771 225.869L419.395 227.341V227.907C417.583 227.794 415.771 227.794 413.959 227.568C411.128 227.115 408.411 226.548 405.693 225.869C404.674 225.643 404.108 224.623 404.334 223.604C404.334 223.378 404.334 223.265 404.334 223.265Z" fill="#EAEAF5"/>
<path d="M458.349 121.466C457.896 122.598 457.669 123.051 457.216 123.844C456.197 120.786 456.65 119.88 458.689 119.767C458.915 118.182 459.141 116.483 459.368 114.671C461.18 115.804 461.633 118.748 464.464 117.842L464.917 119.994L460.953 122.258L458.349 121.466Z" fill="#EAEAF5"/>
<path d="M457.334 51.4865C456.089 51.4865 454.843 51.2601 453.597 51.0336C453.144 50.8071 452.691 50.3542 452.691 49.788C452.805 49.3351 453.484 48.8821 453.937 48.5424C454.163 48.3159 454.503 48.3159 454.843 48.3159C457.674 49.335 460.392 48.4292 463.222 48.5424C463.789 48.5424 464.242 49.2218 464.694 49.5615C464.242 50.0145 463.789 50.6939 463.336 50.8071C461.297 51.2601 459.259 51.2601 457.334 51.4865Z" fill="#EAEAF5"/>
<path d="M515.881 278.072C515.655 278.752 515.315 279.318 514.975 279.884C513.843 281.469 512.597 282.942 511.352 284.414C511.125 284.527 510.899 284.527 510.785 284.3C510.672 284.187 510.672 284.074 510.785 283.961C510.219 282.715 509.54 281.583 509.087 280.564L510.672 276.487C512.258 275.808 513.39 280.337 515.881 277.166V278.072Z" fill="#EAEAF5"/>
<path d="M85.9131 54.7687L85.6866 53.2966L88.5175 54.7687L87.8381 53.1833C88.9705 53.0701 89.9896 52.9569 91.122 53.0701C91.5749 53.1833 92.0279 54.3157 91.9146 54.8819C91.8014 55.6746 91.2352 57.0334 90.7823 57.1466C89.8764 57.2599 88.9705 56.5804 87.9513 56.2407C87.2719 56.0143 86.5925 55.901 86.0263 55.7878C85.3469 55.6746 84.6675 55.4481 83.9881 55.1084C83.3086 54.6554 82.7425 54.2025 82.1763 53.7495C82.4027 53.4098 82.9689 52.7304 82.9689 52.8436C83.6483 53.1833 84.3278 53.6363 85.0072 54.2025C85.1204 54.3157 85.3469 54.5422 85.3469 54.7687H85.9131Z" fill="#EAEAF5"/>
<path d="M112.413 176.046C113.885 173.441 117.169 172.309 119.886 173.554C122.83 175.026 125.661 176.725 128.945 178.423L124.529 178.99C123.51 177.857 122.944 176.612 122.038 176.159C120.226 175.253 118.414 174.573 116.376 174.347C115.13 174.121 113.885 175.253 112.413 176.046Z" fill="#EAEAF5"/>
<path d="M426.643 180.801C429.927 181.82 430.493 183.292 429.248 185.217C428.002 187.142 428.455 188.048 430.833 188.501C431.512 188.727 432.192 188.954 432.871 189.18L432.079 190.879C430.607 189.407 428.002 189.746 426.643 187.708C424.718 185.104 428.229 183.405 426.643 180.801Z" fill="#EAEAF5"/>
<path d="M102.448 59.9788C102.335 61.7906 100.749 63.0362 98.9377 62.9229C98.598 62.9229 98.0318 63.0362 98.0318 63.1494C97.6921 65.0744 96.3333 64.395 95.9935 63.7156C95.5406 62.6965 95.2009 60.9979 95.6538 60.3185C96.1068 59.6391 97.9186 59.4126 99.1642 59.4126C100.183 59.4126 101.316 59.6391 102.448 59.9788Z" fill="#EAEAF5"/>
<path d="M434.572 201.185C434.685 201.751 434.799 202.317 434.912 202.884L434.232 203.337L431.628 199.939L429.59 200.279L429.25 199.713L435.478 196.203L435.931 201.072L434.572 201.185Z" fill="#EAEAF5"/>
<path d="M392.223 39.1423L381.918 41.5203C382.032 40.8409 381.918 39.935 382.258 39.7085C385.316 37.7835 388.486 36.8776 392.223 39.1423Z" fill="#EAEAF5"/>
<path d="M55.6826 54.0905C57.2679 53.0714 58.8532 52.2787 60.5518 51.5993C62.2503 51.1463 63.9489 50.9199 65.6474 50.8066L66.1004 51.5993C65.3077 52.3919 64.4018 53.1846 63.6092 53.864C63.4959 53.9773 62.8165 53.1846 62.3636 52.8449C60.665 54.8832 56.4753 55.5626 55.6826 54.0905Z" fill="#EAEAF5"/>
<path d="M128.496 180.914L132.12 181.254L130.308 179.102C133.818 178.196 137.781 179.555 137.555 181.707C134.498 181.48 131.327 182.952 128.496 180.914Z" fill="#EAEAF5"/>
<path d="M117.733 87.9479C116.375 88.0612 115.242 88.4009 114.789 88.0612C113.43 86.9288 112.638 87.8347 111.505 88.1744C110.26 88.4009 109.014 88.4009 107.769 88.2876C110.26 84.3243 110.939 84.0979 114.11 85.9097L114.789 86.2494L117.733 87.9479Z" fill="#EAEAF5"/>
<path d="M395.616 40.0488C395.277 41.068 395.163 41.7474 394.937 42.4268C389.841 43.2195 388.482 42.993 385.991 40.8415L395.616 40.0488Z" fill="#EAEAF5"/>
<path d="M283.632 41.0683C281.254 41.2948 278.763 41.408 276.385 41.408C274.573 41.1815 272.875 40.5021 271.176 39.7095H283.632V41.0683Z" fill="#EAEAF5"/>
<path d="M89.8807 50.1254L81.7277 48.5401L83.5395 47.7474L80.8218 46.9548L80.935 46.1621C82.0674 46.2753 83.0865 46.3886 84.2189 46.615C85.3512 46.8415 86.3704 47.1812 87.3895 47.6342C88.4086 48.2004 89.3145 48.7665 90.2204 49.446L89.8807 50.1254Z" fill="#EAEAF5"/>
<path d="M403.883 43.8985L394.824 44.578L394.484 44.2382C395.956 43.3323 397.428 41.9735 399.013 41.8603C400.599 41.747 402.524 42.7662 404.222 43.2191L403.883 43.8985Z" fill="#EAEAF5"/>
<path d="M365.498 195.976C366.404 197.335 367.31 198.807 367.99 200.392C368.216 200.845 367.197 202.204 366.517 202.544C365.159 203.11 364.706 202.091 364.819 200.845C364.819 199.373 364.819 197.901 364.819 196.429L365.498 195.976Z" fill="#EAEAF5"/>
<path d="M466.504 288.603C465.485 286.338 464.806 284.753 464.126 283.394C465.485 283.28 466.957 283.28 468.316 283.507C468.769 283.62 469.335 284.979 469.109 285.432C468.429 286.678 467.524 287.697 466.504 288.603Z" fill="#EAEAF5"/>
<path d="M442.162 140.037C444.767 142.188 444.653 144.793 441.822 146.265C441.936 144.906 441.936 143.66 441.936 142.641L440.803 141.962L442.162 140.037Z" fill="#EAEAF5"/>
<path d="M326.769 37.8962L332.884 35.8579L333.224 36.3108C332.658 37.1035 332.205 38.4623 331.525 38.5756C329.94 38.8021 328.242 38.8021 326.543 38.6888L326.769 37.8962Z" fill="#EAEAF5"/>
<path d="M255.317 125.089L256.903 124.41C257.016 124.863 257.469 125.429 257.356 125.655C256.789 126.901 258.035 129.052 255.317 129.166V125.089Z" fill="#EAEAF5"/>
<path d="M265.397 134.146L261.32 131.655L261.434 131.202H265.85C265.737 132.108 265.623 133.014 265.397 134.146Z" fill="#EAEAF5"/>
<path d="M116.604 60.0908L122.606 61.2232L122.379 62.1291C120.567 61.5629 117.85 64.2806 116.604 60.0908Z" fill="#EAEAF5"/>
<path d="M90.7876 47.2949C92.8259 47.6346 94.0715 47.8611 95.4303 48.2008C95.6568 48.2008 95.8832 48.767 95.77 48.9935C95.6568 49.3332 95.3171 49.5596 94.9773 49.7861C93.1656 50.2391 91.92 49.5597 90.7876 47.2949Z" fill="#EAEAF5"/>
<path d="M429.477 169.365C428.684 171.63 428.118 173.329 427.552 175.254C425.853 172.649 426.306 171.064 429.477 169.365Z" fill="#EAEAF5"/>
<path d="M470.129 222.472C471.149 222.585 472.168 222.585 473.187 222.359C473.979 222.019 474.546 221 475.791 220.547C475.452 221.34 474.999 222.019 474.432 222.698C473.074 223.944 471.601 224.057 470.129 222.472Z" fill="#EAEAF5"/>
<path d="M93.6196 56.6933L97.5829 55.3345L97.9226 57.8257C97.13 57.8257 96.3373 57.8257 95.4314 57.7124C94.8652 57.5992 94.1858 57.3727 93.6196 57.1463V56.6933Z" fill="#EAEAF5"/>
<path d="M437.062 227.682L430.833 231.872C432.192 228.475 433.891 227.342 437.062 227.682Z" fill="#EAEAF5"/>
<path d="M91.8043 75.6035L95.2014 77.6418L95.0882 78.0947L89.6528 77.6418L91.8043 75.6035Z" fill="#EAEAF5"/>
<path d="M93.3911 52.0513L98.3735 52.5042C96.5617 54.6557 94.9764 53.4101 93.3911 52.7307V52.0513Z" fill="#EAEAF5"/>
<path d="M69.0479 50.1271L74.0303 49.3345C73.2376 51.5992 71.5391 51.9389 69.0479 50.1271Z" fill="#EAEAF5"/>
<path d="M448.05 139.017C449.409 142.187 445.672 140.828 445.672 142.527C444.427 140.036 447.031 140.262 448.05 139.017Z" fill="#EAEAF5"/>
<path d="M442.838 219.302H438.195C438.422 218.849 438.648 217.943 438.875 217.943C440.234 217.83 442.045 217.49 442.838 219.302Z" fill="#EAEAF5"/>
<path d="M333.338 38.3505L337.188 38.0107L337.301 39.1431L333.564 39.5961L333.338 38.3505Z" fill="#EAEAF5"/>
<path d="M137.443 201.298C137.217 201.298 136.99 201.184 136.877 201.071L135.292 199.259C134.952 198.92 135.065 198.467 135.292 198.127C135.631 197.787 136.084 197.901 136.424 198.24L138.009 200.052C138.349 200.392 138.236 200.845 137.896 201.184C137.783 201.298 137.67 201.298 137.443 201.298Z" fill="#2D2D2D"/>
<path d="M132.798 195.975C132.572 195.975 132.345 195.862 132.232 195.749L129.061 192.125C128.722 191.785 128.835 191.333 129.061 190.993C129.401 190.653 129.854 190.766 130.194 191.106L133.364 194.616C133.704 194.956 133.591 195.409 133.364 195.749C133.138 195.862 133.025 195.975 132.798 195.975ZM126.457 188.841C126.23 188.841 126.004 188.728 125.891 188.615L122.72 185.105C122.38 184.765 122.494 184.312 122.72 183.972C123.06 183.632 123.513 183.746 123.852 184.085L127.023 187.596C127.363 187.935 127.25 188.388 127.023 188.728C126.797 188.728 126.683 188.841 126.457 188.841ZM120.229 181.707C120.002 181.707 119.776 181.594 119.663 181.481L116.492 177.971C116.266 177.631 116.379 177.065 116.832 176.838C117.058 176.725 117.398 176.725 117.624 176.838L120.795 180.349C121.135 180.688 121.022 181.141 120.682 181.481C120.569 181.594 120.342 181.707 120.229 181.707ZM113.888 174.574C113.661 174.574 113.435 174.46 113.321 174.347L110.151 170.837C109.811 170.497 109.924 170.044 110.151 169.704C110.491 169.365 110.944 169.478 111.283 169.704L114.454 173.215C114.794 173.554 114.68 174.007 114.454 174.347C114.341 174.574 114.114 174.574 113.888 174.574ZM107.66 167.44C107.433 167.44 107.207 167.326 107.093 167.213L103.923 163.703C103.583 163.363 103.696 162.91 103.923 162.57C104.263 162.231 104.716 162.344 105.055 162.684L108.226 166.194C108.566 166.534 108.452 166.987 108.226 167.326C107.999 167.44 107.886 167.44 107.66 167.44ZM101.318 160.306C101.092 160.306 100.865 160.193 100.752 160.079L97.5816 156.569C97.2419 156.229 97.3551 155.776 97.5816 155.437C97.9213 155.097 98.3743 155.21 98.714 155.55L101.885 159.06C102.224 159.4 102.111 159.853 101.885 160.193C101.771 160.306 101.545 160.306 101.318 160.306ZM95.0904 153.172C94.8639 153.172 94.6374 153.059 94.5242 152.945L91.3536 149.435C91.0139 149.209 90.9006 148.642 91.1271 148.303C91.3536 147.963 91.9198 147.85 92.2595 148.076C92.3727 148.189 92.486 148.189 92.486 148.303L95.6566 151.813C95.9963 152.153 95.8831 152.606 95.5433 152.945C95.4301 153.172 95.2036 153.172 95.0904 153.172ZM88.7491 146.151C88.5227 146.151 88.2962 146.038 88.183 145.925L85.1256 142.414C84.7859 142.075 84.8991 141.622 85.1256 141.282C85.4653 140.942 85.9182 141.056 86.2579 141.282L89.4286 144.792C89.7683 145.132 89.655 145.585 89.4286 145.925C89.2021 146.038 88.9756 146.151 88.7491 146.151ZM82.4079 139.017C82.1814 139.017 81.955 138.904 81.8417 138.791L78.6711 135.28C78.3314 134.941 78.4446 134.488 78.6711 134.148C79.0108 133.808 79.4638 133.922 79.8035 134.261L82.9741 137.772C83.3138 138.111 83.2006 138.564 82.9741 138.904C82.8609 138.904 82.6344 139.017 82.4079 139.017ZM76.1799 131.883C75.9534 131.883 75.727 131.77 75.6137 131.657L72.4431 128.147C72.1034 127.807 72.2166 127.354 72.4431 127.014C72.7828 126.674 73.2357 126.788 73.5755 127.127L76.7461 130.638C77.0858 130.977 76.9726 131.43 76.7461 131.77C76.5196 131.77 76.4064 131.883 76.1799 131.883ZM69.8387 124.749C69.6122 124.749 69.3857 124.636 69.2725 124.523L66.1018 121.013C65.7621 120.786 65.6489 120.22 65.8754 119.88C66.1019 119.541 66.668 119.427 67.0077 119.654C67.121 119.767 67.2342 119.767 67.2342 119.88L70.4048 123.391C70.7445 123.73 70.6313 124.183 70.4048 124.523C70.2916 124.636 70.0651 124.749 69.8387 124.749ZM63.6106 117.616C63.3842 117.616 63.1577 117.502 63.0445 117.389L59.8738 113.879C59.5341 113.539 59.6474 113.086 59.8738 112.746C60.2135 112.407 60.6665 112.52 61.0062 112.746L64.1768 116.257C64.5165 116.596 64.4033 117.049 64.0636 117.389C64.0636 117.502 63.8371 117.616 63.6106 117.616ZM57.2694 110.482C57.0429 110.482 56.8164 110.368 56.7032 110.255L53.6458 106.632C53.3061 106.292 53.4194 105.839 53.6458 105.499C53.9855 105.16 54.4385 105.273 54.7782 105.613L57.9488 109.123C58.2885 109.463 58.1753 109.915 57.9488 110.255C57.7223 110.368 57.6091 110.482 57.2694 110.482ZM51.0414 103.348C50.8149 103.348 50.5884 103.235 50.4752 103.121L47.3046 99.611C46.9649 99.2713 47.0781 98.8183 47.3046 98.4786C47.6443 98.1389 48.0972 98.2521 48.4369 98.5918L51.6076 102.102C51.9473 102.442 51.834 102.895 51.6076 103.235C51.3811 103.235 51.2679 103.348 51.0414 103.348ZM44.7001 96.2139C44.4737 96.2139 44.2472 96.1006 44.134 95.9874L40.9633 92.4771C40.7369 92.1373 40.8501 91.5712 41.303 91.3447C41.5295 91.2315 41.8692 91.2315 42.0957 91.3447L45.2663 94.855C45.606 95.1947 45.4928 95.6477 45.2663 95.9874C45.1531 96.1006 44.9266 96.2139 44.7001 96.2139Z" fill="#2D2D2D"/>
<path d="M38.4737 89.0804C38.2472 89.0804 38.0207 88.9672 37.9075 88.8539L36.3222 87.0421C36.0957 86.8157 36.0957 86.5892 36.0957 86.3627C36.2089 86.1363 36.3222 85.9098 36.5487 85.7966L38.8134 85.0039C39.2663 84.7774 39.7193 85.0039 39.8325 85.4568C40.059 85.9098 39.8325 86.3627 39.3796 86.476C39.3796 86.476 39.3796 86.476 39.2663 86.476L38.134 86.9289L38.9266 87.8348C39.2663 88.1745 39.1531 88.6275 38.8134 88.9672C38.9266 88.9672 38.7001 89.0804 38.4737 89.0804Z" fill="#2D2D2D"/>
<path d="M43.569 84.8905C43.1161 84.8905 42.7764 84.5508 42.7764 84.0978C42.7764 83.7581 43.0028 83.4184 43.3425 83.3052L47.7588 81.7198C48.2117 81.6066 48.6647 81.8331 48.7779 82.1728C48.8911 82.6257 48.6647 83.0787 48.325 83.1919L43.9087 84.7772C43.7955 84.7772 43.6823 84.8905 43.569 84.8905ZM52.4015 81.6066C51.9485 81.6066 51.6088 81.2669 51.6088 80.8139C51.6088 80.4742 51.8353 80.1345 52.175 80.0213L56.5912 78.436C57.0442 78.3228 57.4971 78.5492 57.6104 78.8889C57.7236 79.3419 57.4971 79.7948 57.1574 79.9081L52.7412 81.4934C52.6279 81.6066 52.5147 81.6066 52.4015 81.6066ZM61.2339 78.3228C60.8942 78.3228 60.5545 78.0963 60.4413 77.7566C60.328 77.3036 60.5545 76.8507 60.8942 76.7374L65.3104 75.1521C65.7634 75.0389 66.2163 75.2654 66.3296 75.6051C66.4428 75.9448 66.2163 76.3977 65.8766 76.6242L61.4604 78.2095C61.3472 78.2095 61.2339 78.3228 61.2339 78.3228ZM412.947 75.2654H412.833L408.191 74.5859C407.738 74.4727 407.511 74.0198 407.625 73.68C407.738 73.3403 408.077 73.0006 408.53 73.1139L413.173 73.7933C413.626 73.9065 413.853 74.2462 413.853 74.6992C413.626 74.9257 413.286 75.2654 412.947 75.2654ZM70.0664 75.0389C69.7267 75.0389 69.387 74.8124 69.2737 74.5859C69.1605 74.133 69.2737 73.6801 69.7267 73.5668L74.1429 71.9815C74.5958 71.8683 75.0488 72.0947 75.162 72.4345C75.2753 72.8874 75.0488 73.3403 74.7091 73.4536L70.2928 75.0389C70.1796 75.0389 70.0664 75.0389 70.0664 75.0389ZM403.661 73.7933L398.905 73.1139C398.452 73.0006 398.226 72.6609 398.226 72.208C398.226 71.755 398.679 71.5286 399.132 71.5286L403.775 72.208C404.227 72.208 404.567 72.6609 404.454 73.1139C404.454 73.4536 404.114 73.7933 403.661 73.7933ZM394.376 72.3212H394.263L389.62 71.6418C389.167 71.5286 388.941 71.0756 389.054 70.7359C389.167 70.3962 389.507 70.0565 389.96 70.1697L394.602 70.8491C395.055 70.9624 395.282 71.3021 395.282 71.755C395.055 71.9815 394.716 72.3212 394.376 72.3212ZM78.7856 71.755C78.4459 71.755 78.1062 71.5286 77.9929 71.1888C77.8797 70.7359 77.9929 70.283 78.4459 70.1697L82.8621 68.5844C83.3151 68.3579 83.768 68.5844 83.8812 69.0374C84.1077 69.4903 83.8812 69.9432 83.4283 70.0565C83.4283 70.0565 83.4283 70.0565 83.315 70.0565L78.8988 71.6418C79.0121 71.755 78.8988 71.755 78.7856 71.755ZM385.09 70.8491H384.977L380.335 70.1697C379.882 70.0565 379.655 69.7168 379.655 69.2638C379.768 68.8109 380.108 68.5844 380.561 68.5844L385.204 69.2638C385.657 69.2638 385.996 69.7168 385.883 70.1697C385.883 70.6227 385.543 70.8491 385.09 70.8491ZM375.805 69.3771H375.692L371.049 68.6976C370.596 68.5844 370.37 68.1315 370.483 67.7917C370.596 67.452 370.936 67.1123 371.389 67.2256L376.032 67.905C376.484 68.0182 376.711 68.3579 376.711 68.8109C376.484 69.1506 376.145 69.3771 375.805 69.3771ZM87.618 68.4712C87.2783 68.4712 86.9386 68.2447 86.8254 67.905C86.7122 67.452 86.9386 66.9991 87.2783 66.8859L91.6946 65.3006C92.1475 65.0741 92.6004 65.3005 92.7137 65.7535C92.9402 66.2064 92.7137 66.6594 92.2607 66.7726C92.2607 66.7726 92.2607 66.7726 92.1475 66.7726L87.7313 68.3579C87.8445 68.4712 87.7313 68.4712 87.618 68.4712ZM366.406 67.905H366.293L361.65 67.2256C361.198 67.1123 360.971 66.7726 360.971 66.3197C361.084 65.8667 361.424 65.6403 361.877 65.6403L366.52 66.3197C366.973 66.3197 367.312 66.7726 367.199 67.2256C367.312 67.6785 366.859 68.0182 366.406 67.905ZM357.121 66.4329L352.478 65.7535C352.025 65.6403 351.799 65.3006 351.799 64.8476C351.912 64.3947 352.252 64.1682 352.705 64.1682L357.348 64.8476C357.8 64.9608 358.027 65.3005 358.027 65.7535C357.914 66.2064 357.574 66.4329 357.121 66.4329ZM96.4505 65.1873C95.9975 65.1873 95.6578 64.8476 95.6578 64.3947C95.6578 64.0549 95.8843 63.7152 96.224 63.602L100.64 62.0167C101.093 61.9035 101.546 62.0167 101.659 62.4696C101.773 62.9226 101.659 63.3755 101.206 63.4888L96.7902 65.0741C96.677 65.1873 96.5637 65.1873 96.4505 65.1873ZM347.836 64.9608H347.722L343.08 64.2814C342.627 64.1682 342.4 63.7152 342.514 63.3755C342.627 63.0358 342.966 62.6961 343.419 62.8093L348.062 63.4888C348.515 63.602 348.742 63.9417 348.742 64.3947C348.515 64.7344 348.175 64.9608 347.836 64.9608ZM338.55 63.4888H338.437L333.794 62.8093C333.341 62.8093 333.002 62.3564 333.115 61.9035C333.115 61.4505 333.568 61.1108 334.021 61.224H334.134L338.777 61.9035C339.23 62.0167 339.456 62.3564 339.456 62.8093C339.23 63.2623 338.89 63.4888 338.55 63.4888ZM329.265 62.0167H329.152L324.509 61.3373C324.056 61.224 323.829 60.8843 323.829 60.4314C323.943 59.9784 324.282 59.752 324.735 59.752L329.378 60.4314C329.831 60.5446 330.057 60.8843 330.057 61.3373C329.944 61.7902 329.605 62.0167 329.265 62.0167ZM105.283 61.9035C104.943 61.9035 104.604 61.677 104.49 61.3373C104.377 60.8843 104.604 60.4314 104.943 60.3181L109.359 58.7328C109.812 58.6196 110.265 58.8461 110.379 59.1858C110.492 59.6387 110.265 60.0917 109.926 60.2049L105.509 61.7902C105.509 61.9034 105.396 61.9035 105.283 61.9035ZM319.979 60.5446H319.866L315.224 59.8652C314.771 59.8652 314.431 59.4122 314.544 58.9593C314.544 58.5063 314.997 58.1667 315.45 58.2799H315.563L320.206 58.9593C320.659 59.0725 320.885 59.4122 320.885 59.8652C320.772 60.3181 320.432 60.5446 319.979 60.5446ZM310.694 59.0725H310.581L305.938 58.3931C305.485 58.3931 305.145 57.9402 305.259 57.4872C305.372 57.0343 305.712 56.6946 306.165 56.8078H306.278L310.921 57.4872C311.373 57.6005 311.6 57.9402 311.6 58.3931C311.487 58.8461 311.147 59.0725 310.694 59.0725ZM114.115 58.6196C113.662 58.6196 113.323 58.2799 113.323 57.8269C113.323 57.4872 113.549 57.1475 113.889 57.0343L118.305 55.449C118.758 55.3357 119.211 55.5622 119.324 55.9019C119.438 56.3549 119.211 56.8078 118.871 56.9211L114.455 58.5064C114.342 58.6196 114.229 58.6196 114.115 58.6196ZM301.409 57.6005H301.295L296.653 56.9211C296.2 56.8078 295.973 56.3549 296.087 56.0152C296.2 55.6754 296.539 55.3357 296.992 55.449L301.635 56.1284C302.088 56.2416 302.315 56.5813 302.315 57.0343C302.201 57.374 301.862 57.6005 301.409 57.6005ZM292.123 56.1284H292.01L287.367 55.449C286.914 55.3357 286.688 54.996 286.688 54.5431C286.801 54.0901 287.141 53.8637 287.594 53.8637L292.236 54.5431C292.689 54.6563 292.916 54.996 292.916 55.449C292.916 55.9019 292.576 56.1284 292.123 56.1284ZM122.948 55.3357C122.608 55.3357 122.382 55.1093 122.155 54.8828C122.042 54.4298 122.155 53.9769 122.608 53.8637L127.024 52.2783C127.477 52.1651 127.93 52.2783 128.043 52.7313C128.157 53.1842 128.043 53.6372 127.591 53.7504L123.174 55.3357C123.061 55.3357 123.061 55.3357 122.948 55.3357ZM282.838 54.6563H282.725L278.082 53.9769C277.629 53.8637 277.403 53.5239 277.403 53.071C277.516 52.6181 277.855 52.3916 278.308 52.3916L282.951 53.071C283.404 53.1842 283.631 53.5239 283.631 53.9769C283.631 54.4298 283.291 54.6563 282.838 54.6563ZM273.552 53.1842H273.439L268.797 52.5048C268.344 52.5048 268.004 52.0519 268.117 51.5989C268.117 51.146 268.57 50.8063 269.023 50.9195H269.136L273.779 51.5989C274.232 51.7122 274.458 52.0519 274.458 52.5048C274.345 52.9578 274.005 53.2975 273.552 53.1842ZM131.78 52.0519C131.441 52.0519 131.101 51.8254 130.988 51.5989C130.874 51.146 131.101 50.693 131.441 50.5798L135.857 48.9945C136.31 48.768 136.763 48.9945 136.876 49.4474C137.102 49.9004 136.876 50.3533 136.423 50.4666C136.423 50.4666 136.423 50.4666 136.31 50.4666L131.894 52.0519C131.894 52.0519 131.894 52.0519 131.78 52.0519ZM264.267 51.8254H264.154L259.511 51.146C259.058 51.0327 258.832 50.693 258.832 50.2401C258.945 49.7871 259.285 49.5607 259.738 49.5607L264.38 50.2401C264.833 50.3533 265.06 50.693 265.06 51.146C264.946 51.4857 264.607 51.8254 264.267 51.8254ZM254.982 50.3533H254.868L250.226 49.6739C249.773 49.5607 249.546 49.221 249.546 48.768C249.66 48.3151 249.999 48.0886 250.452 48.0886L255.095 48.768C255.548 48.8812 255.774 49.221 255.774 49.6739C255.661 50.0136 255.321 50.3533 254.982 50.3533ZM245.696 48.8812H245.583L240.94 48.2018C240.487 48.2018 240.148 47.7489 240.261 47.2959C240.261 46.843 240.714 46.5033 241.167 46.6165H241.28L245.923 47.2959C246.376 47.4092 246.602 47.7489 246.602 48.2018C246.376 48.5415 246.036 48.8812 245.696 48.8812ZM140.5 48.8812C140.16 48.8812 139.82 48.6548 139.707 48.3151C139.594 47.8621 139.82 47.4092 140.16 47.2959L144.576 45.7106C145.029 45.4841 145.482 45.7106 145.595 46.0503C145.822 46.5033 145.595 46.9562 145.255 47.0695H145.142L140.726 48.6548C140.726 48.768 140.613 48.8812 140.5 48.8812ZM236.411 47.4092H236.298L231.655 46.7298C231.202 46.6165 230.976 46.2768 230.976 45.8239C231.089 45.3709 231.428 45.1444 231.881 45.1444L236.524 45.8239C236.977 45.9371 237.204 46.2768 237.204 46.7298C237.09 47.1827 236.751 47.4092 236.411 47.4092ZM227.125 45.9371H227.012L222.37 45.2577C221.917 45.2577 221.577 44.8047 221.69 44.3518C221.69 43.8988 222.143 43.5591 222.596 43.6724H222.709L227.352 44.3518C227.805 44.465 228.031 44.8047 228.031 45.2577C227.805 45.7106 227.465 45.9371 227.125 45.9371ZM149.332 45.5974C148.992 45.5974 148.653 45.3709 148.653 45.0312C148.539 44.5783 148.653 44.1253 149.105 44.0121L153.522 42.4268C153.975 42.3135 154.428 42.54 154.541 42.8797C154.654 43.2194 154.428 43.6724 154.088 43.8988L149.672 45.4842C149.558 45.5974 149.445 45.5974 149.332 45.5974ZM217.84 44.465H217.727L213.084 43.7856C212.631 43.6724 212.405 43.3327 212.405 42.8797C212.518 42.4268 212.858 42.2003 213.311 42.2003L217.953 42.8797C218.406 42.9929 218.633 43.3327 218.633 43.7856C218.519 44.1253 218.18 44.465 217.84 44.465ZM208.555 42.993H208.441L203.799 42.3135C203.346 42.2003 203.119 41.7473 203.233 41.4076C203.346 41.0679 203.686 40.7282 204.138 40.8414L208.781 41.5209C209.234 41.6341 209.461 41.9738 209.461 42.4268C209.234 42.7665 208.894 42.993 208.555 42.993ZM158.164 42.3135C157.711 42.3135 157.372 41.9738 157.372 41.5209C157.372 41.1812 157.598 40.8415 157.938 40.7282L162.354 39.1429C162.807 39.0297 163.26 39.1429 163.373 39.5959C163.487 40.0488 163.26 40.5017 162.92 40.615L158.504 42.2003C158.391 42.2003 158.278 42.3135 158.164 42.3135ZM199.269 41.5209H199.156L194.513 40.8414C194.06 40.7282 193.834 40.3885 193.834 39.9356C193.947 39.4826 194.287 39.2561 194.74 39.2561L199.382 39.9356C199.835 40.0488 200.062 40.3885 200.062 40.8414C199.949 41.1812 199.609 41.5209 199.269 41.5209ZM189.984 40.0488H189.871L185.228 39.3694C184.775 39.3694 184.435 38.9164 184.549 38.4635C184.549 38.0105 185.001 37.6708 185.454 37.7841H185.568L190.21 38.4635C190.663 38.5767 190.89 38.9164 190.89 39.3694C190.663 39.7091 190.324 40.0488 189.984 40.0488ZM166.997 39.0297C166.544 39.0297 166.204 38.69 166.204 38.237C166.204 37.8973 166.431 37.5576 166.77 37.4444L171.187 35.859C171.64 35.7458 172.092 35.9723 172.206 36.312C172.319 36.7649 172.092 37.2179 171.753 37.3311L167.337 38.9164C167.223 39.0297 167.11 39.0297 166.997 39.0297ZM180.698 38.5767H180.585L175.943 37.8973C175.49 37.7841 175.263 37.4444 175.263 36.9914C175.376 36.5385 175.716 36.312 176.169 36.312L180.812 36.9914C181.265 37.1046 181.491 37.4444 181.491 37.8973C181.378 38.3503 181.038 38.5767 180.698 38.5767Z" fill="#2D2D2D"/>
<path d="M419.964 78.7756C419.511 78.7756 419.171 78.4359 419.171 77.983V76.2844L417.473 76.0579C417.02 76.0579 416.68 75.605 416.793 75.152C416.907 74.6991 417.246 74.3594 417.699 74.4726H417.813L420.191 74.8123C420.53 74.9256 420.87 75.1521 420.87 75.605V77.983C420.757 78.3227 420.417 78.6624 419.964 78.7756Z" fill="#2D2D2D"/>
<path d="M422.91 231.193C422.457 231.193 422.117 230.853 422.117 230.4L422.004 225.644C422.004 225.192 422.344 224.852 422.796 224.852C423.249 224.852 423.589 225.078 423.589 225.531V225.644L423.702 230.4C423.702 230.853 423.363 231.193 422.91 231.193ZM422.796 221.681C422.344 221.681 422.004 221.341 422.004 220.889L421.891 216.133C421.891 215.68 422.23 215.34 422.683 215.34C423.136 215.34 423.476 215.68 423.476 216.133L423.589 220.889C423.589 221.341 423.249 221.681 422.796 221.681ZM422.57 212.169C422.117 212.169 421.777 211.83 421.777 211.377L421.664 206.621C421.664 206.168 422.004 205.828 422.457 205.828C422.91 205.828 423.249 206.168 423.249 206.507C423.249 206.507 423.249 206.507 423.249 206.621L423.363 211.377C423.363 211.716 423.023 212.169 422.57 212.169ZM422.344 202.657C421.891 202.657 421.551 202.318 421.551 201.865L421.438 197.109C421.438 196.656 421.777 196.316 422.23 196.316C422.683 196.316 423.023 196.656 423.023 197.109L423.136 201.865C423.249 202.318 422.796 202.657 422.344 202.657C422.457 202.657 422.457 202.657 422.344 202.657ZM422.23 193.032C421.777 193.032 421.438 192.693 421.438 192.24L421.324 187.484C421.324 187.031 421.664 186.691 422.117 186.691C422.57 186.691 422.91 186.918 422.91 187.37V187.484L423.023 192.24C423.023 192.693 422.683 193.032 422.23 193.032ZM422.004 183.52C421.551 183.52 421.211 183.181 421.211 182.728L421.098 177.972C421.098 177.519 421.438 177.179 421.891 177.179C422.344 177.179 422.683 177.519 422.683 177.859C422.683 177.859 422.683 177.859 422.683 177.972L422.796 182.728C422.796 183.181 422.457 183.52 422.004 183.52ZM421.777 174.009C421.324 174.009 420.985 173.669 420.985 173.216L420.871 168.46C420.871 168.007 421.211 167.667 421.664 167.667C422.117 167.667 422.457 168.007 422.457 168.46L422.57 173.216C422.57 173.669 422.23 174.009 421.777 174.009ZM421.664 164.497C421.211 164.497 420.871 164.157 420.871 163.704L420.758 158.948C420.758 158.495 421.098 158.155 421.551 158.155C422.004 158.155 422.344 158.495 422.344 158.835L422.457 163.591C422.457 164.157 422.117 164.497 421.664 164.497ZM421.438 154.985C420.985 154.985 420.645 154.645 420.645 154.192L420.532 149.436C420.532 148.983 420.871 148.644 421.324 148.644C421.777 148.644 422.117 148.983 422.117 149.436L422.23 154.192C422.23 154.532 421.891 154.985 421.438 154.985ZM421.211 145.473C420.758 145.473 420.418 145.133 420.418 144.68L420.305 139.924C420.305 139.471 420.645 139.132 421.098 139.132C421.551 139.132 421.891 139.358 421.891 139.811V139.924L422.004 144.68C422.117 145.02 421.777 145.36 421.211 145.473C421.324 145.473 421.324 145.473 421.211 145.473ZM421.098 135.848C420.645 135.848 420.305 135.508 420.305 135.055L420.192 130.299C420.192 129.846 420.532 129.507 420.985 129.507C421.438 129.507 421.777 129.846 421.777 130.186C421.777 130.186 421.777 130.186 421.777 130.299L421.891 135.055C421.891 135.508 421.551 135.848 421.098 135.848ZM420.871 126.336C420.418 126.336 420.079 125.996 420.079 125.543L419.966 120.787C419.966 120.334 420.305 119.995 420.758 119.995C421.211 119.995 421.551 120.334 421.551 120.674C421.551 120.674 421.551 120.674 421.551 120.787L421.664 125.543C421.664 125.996 421.324 126.336 420.871 126.336ZM420.758 116.824C420.305 116.824 419.966 116.484 419.966 116.031L419.852 111.276C419.852 110.823 420.192 110.483 420.645 110.483C421.098 110.483 421.438 110.823 421.438 111.276L421.551 116.031C421.551 116.484 421.211 116.824 420.758 116.824ZM420.532 107.312C420.079 107.312 419.739 106.973 419.739 106.52L419.626 101.764C419.626 101.311 419.966 100.971 420.418 100.971C420.871 100.971 421.211 101.311 421.211 101.764L421.324 106.52C421.324 106.973 420.985 107.312 420.532 107.312ZM420.305 97.8004C419.852 97.8004 419.513 97.4607 419.513 97.0077L419.399 92.2518C419.399 91.7989 419.739 91.4591 420.192 91.4591C420.645 91.4591 420.985 91.7989 420.985 92.2518L421.098 97.0077C421.211 97.4607 420.758 97.8004 420.305 97.8004C420.418 97.8004 420.418 97.8004 420.305 97.8004ZM420.192 88.2885C419.739 88.2885 419.399 87.9488 419.399 87.4959L419.286 82.7399C419.286 82.287 419.626 81.9473 420.079 81.9473C420.532 81.9473 420.871 82.287 420.871 82.7399L420.985 87.4959C420.985 87.8356 420.645 88.2885 420.192 88.2885Z" fill="#2D2D2D"/>
<path d="M423.139 238.326C423.026 238.326 422.912 238.326 422.799 238.213L420.761 237.08C420.421 236.854 420.308 236.401 420.534 235.948C420.761 235.608 421.214 235.495 421.553 235.608L422.459 236.061V235.155C422.459 234.703 422.799 234.363 423.252 234.363C423.705 234.363 424.045 234.703 424.045 235.155V237.533C424.045 237.873 423.931 238.1 423.705 238.213C423.365 238.326 423.252 238.326 423.139 238.326Z" fill="#2D2D2D"/>
<path d="M417.025 234.929C416.912 234.929 416.799 234.929 416.686 234.816L412.609 232.551C412.269 232.325 412.043 231.872 412.269 231.419C412.496 231.079 412.949 230.853 413.402 231.079L417.478 233.344C417.818 233.57 418.044 234.023 417.818 234.363C417.478 234.816 417.252 234.929 417.025 234.929ZM408.872 230.4C408.759 230.4 408.646 230.4 408.532 230.287L404.456 228.022C404.116 227.795 404.003 227.342 404.23 226.89C404.456 226.55 404.909 226.437 405.249 226.55L409.325 228.815C409.665 229.041 409.891 229.494 409.665 229.947C409.438 230.287 409.212 230.4 408.872 230.4ZM400.719 225.87C400.606 225.87 400.493 225.87 400.379 225.757L396.303 223.492C395.963 223.266 395.85 222.813 396.076 222.36C396.303 222.02 396.756 221.907 397.096 222.02L401.172 224.285C401.512 224.512 401.738 224.965 401.512 225.417C401.285 225.757 401.059 225.87 400.719 225.87ZM392.679 221.341C392.566 221.341 392.453 221.341 392.34 221.228L388.263 218.963C387.923 218.737 387.697 218.284 387.923 217.831C388.15 217.491 388.603 217.264 389.056 217.491L393.132 219.756C393.472 219.982 393.699 220.435 393.472 220.888C393.246 221.228 392.906 221.341 392.679 221.341ZM384.526 216.811C384.413 216.811 384.3 216.811 384.187 216.698L380.11 214.434C379.77 214.207 379.544 213.754 379.77 213.301C379.997 212.961 380.45 212.735 380.79 212.961L384.866 215.226C385.206 215.453 385.432 215.906 385.206 216.359C385.093 216.698 384.866 216.811 384.526 216.811ZM376.487 212.282C376.373 212.282 376.26 212.282 376.147 212.169L372.07 209.904C371.731 209.678 371.504 209.225 371.731 208.885C371.957 208.545 372.41 208.319 372.75 208.545H372.863L376.94 210.81C377.279 211.036 377.506 211.489 377.279 211.942C377.166 212.282 376.94 212.508 376.6 212.508L376.487 212.282ZM368.334 207.753C368.22 207.753 368.107 207.753 367.994 207.639L363.917 205.375C363.578 205.148 363.351 204.695 363.578 204.242C363.804 203.903 364.257 203.676 364.71 203.903L368.786 206.167C369.126 206.394 369.353 206.847 369.126 207.3C368.9 207.639 368.673 207.753 368.334 207.753ZM360.294 203.223C360.18 203.223 360.067 203.223 359.954 203.11L355.878 200.845C355.538 200.619 355.425 200.166 355.651 199.713C355.878 199.373 356.33 199.26 356.67 199.373L360.747 201.638C361.086 201.864 361.313 202.317 361.086 202.77C360.86 203.11 360.52 203.223 360.294 203.223ZM352.141 198.694C352.027 198.694 351.914 198.694 351.801 198.58L347.725 196.316C347.385 196.089 347.158 195.636 347.385 195.297C347.611 194.957 348.064 194.73 348.404 194.957H348.517L352.594 197.222C352.933 197.448 353.16 197.901 352.933 198.354C352.933 198.694 352.594 199.033 352.254 199.033L352.141 198.694ZM344.101 194.164C343.988 194.164 343.874 194.164 343.761 194.051L339.685 191.786C339.345 191.56 339.118 191.107 339.345 190.654C339.571 190.314 340.024 190.088 340.364 190.314L344.441 192.579C344.78 192.805 345.007 193.258 344.78 193.598C344.78 194.051 344.554 194.391 344.101 194.391V194.164ZM335.948 189.635C335.835 189.635 335.721 189.635 335.608 189.521L331.532 187.257C331.192 187.03 330.965 186.577 331.192 186.124C331.418 185.785 331.871 185.558 332.211 185.785L336.288 188.049C336.627 188.276 336.854 188.729 336.627 189.069C336.627 189.408 336.288 189.748 335.948 189.861V189.635ZM327.908 185.105C327.795 185.105 327.682 185.105 327.568 184.992L323.492 182.727C323.152 182.501 323.039 182.048 323.265 181.595C323.492 181.255 323.945 181.142 324.285 181.255L328.361 183.52C328.701 183.746 328.927 184.199 328.701 184.652C328.701 185.105 328.474 185.445 328.021 185.445L327.908 185.105ZM319.755 180.576C319.642 180.576 319.529 180.576 319.415 180.463L315.339 178.198C314.999 177.971 314.773 177.518 314.999 177.065C315.226 176.726 315.679 176.499 316.131 176.726L320.208 178.99C320.548 179.217 320.774 179.67 320.548 180.01C320.548 180.01 320.548 180.01 320.548 180.123C320.548 180.576 320.208 180.916 319.755 180.916V180.576ZM311.715 176.046C311.602 176.046 311.489 176.046 311.376 175.933L307.299 173.668C306.959 173.442 306.846 172.989 307.073 172.536C307.299 172.196 307.752 172.083 308.092 172.196L312.168 174.461C312.508 174.687 312.734 175.14 312.508 175.593C312.281 175.933 311.942 176.046 311.715 176.046ZM303.562 171.517C303.449 171.517 303.336 171.517 303.223 171.404L299.146 169.139C298.806 168.912 298.58 168.459 298.806 168.007C299.033 167.667 299.486 167.44 299.939 167.667L304.015 169.932C304.355 170.158 304.581 170.611 304.355 171.064C304.468 171.517 304.128 171.857 303.675 171.97C303.675 171.97 303.675 171.97 303.562 171.97V171.517ZM295.522 166.987C295.409 166.987 295.296 166.987 295.183 166.874L291.106 164.609C290.767 164.383 290.54 163.93 290.767 163.477C290.993 163.137 291.446 162.911 291.899 163.137L295.975 165.402C296.315 165.629 296.542 166.082 296.315 166.534C296.089 166.874 295.749 166.987 295.522 166.987ZM287.369 162.458C287.256 162.458 287.143 162.458 287.03 162.345L282.953 160.08C282.613 159.853 282.5 159.401 282.727 158.948C282.953 158.608 283.406 158.495 283.746 158.608L287.822 160.873C288.162 161.099 288.389 161.552 288.162 161.892C288.275 162.345 288.049 162.798 287.596 162.911H287.483L287.369 162.458Z" fill="#2D2D2D"/>
<path d="M279.325 158.608C279.212 158.608 279.098 158.608 278.985 158.495L277.173 157.475L275.248 158.042C274.796 158.155 274.343 158.042 274.229 157.589C274.116 157.136 274.229 156.683 274.682 156.57H274.795L277.06 155.89C277.287 155.777 277.513 155.89 277.626 156.003L279.665 157.136C280.004 157.362 280.231 157.815 280.004 158.268C279.778 158.495 279.551 158.608 279.325 158.608Z" fill="#2D2D2D"/>
<path d="M144.464 199.147C144.011 199.147 143.671 198.807 143.671 198.354C143.671 198.015 143.897 197.675 144.237 197.562L148.88 196.09C149.333 195.976 149.786 196.203 149.899 196.656C150.012 197.109 149.786 197.562 149.333 197.675L144.69 199.147H144.464ZM153.749 196.203C153.296 196.203 152.956 195.863 152.956 195.41C152.956 195.07 153.183 194.731 153.522 194.617L158.165 193.145C158.618 193.032 159.071 193.259 159.184 193.712C159.298 194.164 159.071 194.617 158.618 194.731L153.975 196.203C153.862 196.203 153.862 196.203 153.749 196.203ZM163.034 193.259C162.581 193.259 162.242 192.919 162.242 192.466C162.242 192.126 162.468 191.787 162.808 191.673L167.451 190.201C167.904 190.088 168.356 190.314 168.47 190.767C168.583 191.22 168.356 191.673 168.017 191.787L163.374 193.259H163.034ZM172.433 190.314C172.093 190.314 171.754 190.088 171.64 189.748C171.527 189.295 171.754 188.842 172.093 188.729L176.736 187.257C177.189 187.144 177.642 187.37 177.755 187.823C177.868 188.276 177.642 188.729 177.189 188.842L172.546 190.314H172.433ZM181.718 187.484C181.379 187.484 181.039 187.257 180.926 186.917C180.812 186.464 181.039 186.011 181.379 185.898L186.021 184.426C186.474 184.313 186.927 184.426 187.04 184.879C187.154 185.332 187.04 185.785 186.588 185.898H186.474L181.832 187.37L181.718 187.484ZM191.004 184.539C190.551 184.539 190.211 184.2 190.211 183.747C190.211 183.407 190.438 183.067 190.777 182.954L195.42 181.482C195.873 181.369 196.326 181.595 196.439 182.048C196.552 182.501 196.326 182.954 195.873 183.067L191.23 184.539H191.004ZM200.402 181.595C200.063 181.595 199.723 181.369 199.61 181.029C199.497 180.576 199.723 180.123 200.176 180.01L204.819 178.538C205.272 178.425 205.725 178.651 205.838 179.104C205.951 179.557 205.725 180.01 205.272 180.123L200.629 181.595C200.516 181.595 200.402 181.595 200.402 181.595ZM209.688 178.651C209.348 178.651 209.008 178.425 208.895 178.085C208.782 177.632 209.008 177.179 209.348 177.066L213.991 175.594C214.444 175.48 214.897 175.594 215.01 176.047C215.123 176.5 215.01 176.953 214.557 177.066H214.444L209.801 178.538L209.688 178.651ZM218.973 175.707C218.633 175.707 218.294 175.48 218.181 175.141C218.067 174.688 218.294 174.235 218.633 174.122L223.276 172.65C223.729 172.536 224.182 172.763 224.295 173.216C224.409 173.669 224.182 174.122 223.729 174.235L219.086 175.707H218.973ZM228.259 172.763C227.806 172.763 227.466 172.423 227.466 171.97C227.466 171.63 227.692 171.291 228.032 171.177L232.675 169.705C233.128 169.592 233.581 169.932 233.581 170.272C233.694 170.611 233.467 171.064 233.128 171.177L228.485 172.65C228.485 172.763 228.372 172.763 228.259 172.763ZM237.657 169.819C237.318 169.819 236.978 169.592 236.865 169.252C236.751 168.8 236.978 168.347 237.318 168.233L241.96 166.761C242.413 166.648 242.866 166.875 242.979 167.327C243.093 167.78 242.866 168.233 242.413 168.347L237.77 169.819H237.657ZM246.943 166.875C246.49 166.875 246.15 166.535 246.15 166.082C246.15 165.742 246.376 165.516 246.716 165.402L251.359 163.93C251.812 163.817 252.265 164.044 252.378 164.497C252.491 164.949 252.265 165.402 251.812 165.516L247.169 166.988C247.169 166.874 247.056 166.875 246.943 166.875ZM256.228 164.044C255.775 164.044 255.435 163.704 255.435 163.251C255.435 162.911 255.662 162.572 256.002 162.458L260.644 160.986C261.097 160.873 261.55 161.213 261.55 161.552C261.663 161.892 261.437 162.345 261.097 162.458L256.454 163.93L256.228 164.044ZM265.627 161.099C265.287 161.099 264.947 160.873 264.834 160.533C264.721 160.08 264.947 159.741 265.287 159.514L269.93 158.042C270.383 157.929 270.836 158.155 270.949 158.608C271.062 159.061 270.836 159.514 270.383 159.627L265.74 161.099C265.74 161.099 265.74 161.099 265.627 161.099Z" fill="#2D2D2D"/>
<path d="M137.444 201.298C137.104 201.298 136.764 201.071 136.651 200.732C136.538 200.279 136.764 199.826 137.217 199.712L139.482 199.033C139.935 198.92 140.388 199.033 140.501 199.486C140.614 199.939 140.501 200.392 140.048 200.505H139.935L137.67 201.185C137.557 201.298 137.557 201.298 137.444 201.298Z" fill="#2D2D2D"/>
<path d="M168.463 196.201C168.463 213.3 154.535 227.228 137.436 227.228C120.337 227.228 106.409 213.3 106.409 196.201C106.409 179.102 120.224 165.174 137.436 165.174C154.535 165.061 168.463 178.876 168.463 195.861C168.463 196.088 168.463 196.201 168.463 196.201Z" fill="white"/>
<path d="M137.438 165.287C154.537 165.287 168.465 179.216 168.465 196.314C168.465 213.413 154.537 227.341 137.438 227.341C120.339 227.341 106.411 213.413 106.411 196.314C106.411 179.216 120.339 165.287 137.438 165.287ZM137.438 163.589C119.433 163.589 104.826 178.196 104.826 196.201C104.826 214.206 119.433 228.813 137.438 228.813C147.403 228.813 156.801 224.284 163.029 216.47C167.672 210.695 170.163 203.448 170.163 196.088C170.05 178.196 155.442 163.589 137.438 163.589Z" fill="#2D2D2D"/>
<path d="M147.63 208.657C146.384 208.317 145.139 207.978 143.78 207.751L143.553 201.636C144.799 200.504 145.705 199.032 146.158 197.333C147.517 197.673 148.989 197.22 149.895 196.201C150.914 195.069 151.48 193.597 151.48 192.125C151.706 190.879 150.914 189.52 149.668 189.294C149.555 189.294 149.555 189.294 149.442 189.294C149.555 188.728 149.555 188.161 149.555 187.595C149.555 179.895 149.102 173.78 137.439 173.78C125.775 173.78 125.322 180.008 125.322 187.595C125.322 188.161 125.322 188.728 125.436 189.294C124.077 189.52 123.171 190.653 123.397 192.011C123.397 192.125 123.397 192.125 123.397 192.238C123.397 193.71 123.963 195.182 124.983 196.314C125.888 197.333 127.361 197.786 128.719 197.447C129.059 198.919 129.852 200.278 130.984 201.41L130.644 207.978C129.512 208.204 128.266 208.544 127.134 208.884C122.038 210.469 117.282 212.847 112.979 215.791C123.624 229.153 143.214 231.418 156.576 220.773C158.387 219.301 160.086 217.716 161.558 215.791C157.481 212.507 152.726 210.242 147.63 208.657Z" fill="#EAEAF5"/>
<path d="M58.4054 90.4393C58.4054 102.329 48.7803 111.954 37.0037 111.954C25.2271 111.954 15.4888 102.329 15.4888 90.5525C15.4888 78.6627 25.1139 69.0376 36.8905 69.0376C48.6671 69.0376 58.2922 78.5495 58.2922 90.3261C58.4054 90.3261 58.4054 90.4393 58.4054 90.4393Z" fill="white"/>
<path d="M36.8874 69.0374C48.7772 69.0374 58.2891 78.6625 58.2891 90.5524C58.2891 102.442 48.664 111.954 36.7741 111.954C24.9975 111.954 15.3724 102.329 15.3724 90.5524C15.3724 78.5493 24.9975 69.0374 36.8874 69.0374ZM36.8874 67.3389C24.0916 67.3389 13.7871 77.6434 13.7871 90.4391C13.7871 103.235 24.0916 113.539 36.8874 113.539C49.6831 113.539 59.9876 103.235 59.9876 90.4391C59.9876 77.6434 49.6831 67.3389 36.8874 67.3389Z" fill="#2D2D2D"/>
<path d="M43.9086 99.0447C43.0027 98.8182 42.21 98.5917 41.3041 98.3653L41.1909 96.6667C56.4778 94.9682 45.2674 83.871 45.2674 80.8136C45.2674 77.5297 44.9277 74.9253 36.8879 74.9253C28.8481 74.9253 28.5084 77.5297 28.5084 80.8136C28.5084 83.7577 17.4112 94.8549 32.3585 96.6667L32.2452 98.4785C31.4526 98.5917 30.6599 98.8182 29.8672 99.0447C26.3569 100.177 23.0731 101.762 20.1289 103.801C23.6392 108.217 28.8481 111.048 34.5099 111.727C36.0953 111.84 37.6806 111.84 39.2659 111.727C44.9277 111.048 50.1366 108.217 53.6469 103.801C50.7028 101.649 47.4189 100.064 43.9086 99.0447Z" fill="#EAEAF5"/>
<path d="M310.691 156.342C310.691 173.441 296.763 187.369 279.664 187.369C262.565 187.369 248.637 173.441 248.637 156.342C248.637 139.243 262.565 125.315 279.664 125.315C296.65 125.202 310.578 139.017 310.691 156.002C310.691 156.115 310.691 156.229 310.691 156.342Z" fill="white"/>
<path d="M279.666 125.315C296.765 125.315 310.693 139.243 310.693 156.342C310.693 173.44 296.765 187.369 279.666 187.369C262.567 187.369 248.639 173.44 248.639 156.342C248.639 139.243 262.567 125.315 279.666 125.315ZM279.666 123.73C261.661 123.73 247.054 138.337 247.054 156.342C247.054 174.346 261.661 188.954 279.666 188.954C289.631 188.954 299.029 184.424 305.257 176.611C309.9 170.836 312.391 163.589 312.391 156.229C312.391 138.224 297.784 123.616 279.666 123.73Z" fill="#2D2D2D"/>
<path d="M289.86 168.684C288.614 168.344 287.369 168.005 286.01 167.778L285.783 161.663C287.029 160.531 287.935 159.059 288.388 157.36C289.747 157.7 291.219 157.247 292.125 156.228C293.144 155.096 293.71 153.624 293.71 152.151C293.936 150.906 293.144 149.547 291.898 149.321C291.785 149.321 291.785 149.321 291.672 149.321C291.672 148.754 291.785 148.188 291.785 147.622C291.785 139.922 291.332 133.807 279.669 133.807C268.005 133.807 267.666 140.035 267.666 147.735C267.666 148.301 267.666 148.868 267.779 149.434C266.42 149.66 265.514 150.793 265.741 152.151V152.265C265.741 153.737 266.42 155.209 267.326 156.341C268.232 157.36 269.704 157.813 271.063 157.474C271.402 158.946 272.195 160.304 273.327 161.437L272.988 168.005C271.855 168.231 270.61 168.571 269.591 168.91C264.495 170.496 259.739 172.874 255.436 175.931C260.532 182.386 268.119 186.575 276.272 187.481C278.536 187.708 280.801 187.708 283.066 187.481C291.219 186.575 298.806 182.386 303.901 175.931C299.598 172.647 294.842 170.269 289.86 168.684Z" fill="#EAEAF5"/>
<path d="M441.49 76.511C441.49 88.4009 431.865 98.026 419.975 98.026C408.086 98.026 398.46 88.4009 398.46 76.511C398.46 64.6212 408.086 54.9961 419.975 54.9961C431.865 54.9961 441.49 64.508 441.49 76.3978V76.511Z" fill="white"/>
<path d="M419.972 54.9959C431.862 54.9959 441.487 64.621 441.487 76.5109C441.487 88.4007 431.862 98.0258 419.972 98.0258C408.082 98.0258 398.457 88.4007 398.457 76.5109C398.457 64.621 408.082 54.9959 419.972 54.9959ZM419.972 53.2974C407.177 53.2974 396.759 63.7151 396.759 76.5109C396.759 89.3066 407.177 99.7243 419.972 99.7243C432.768 99.7243 443.186 89.3066 443.186 76.5109C443.073 63.7151 432.768 53.4106 419.972 53.2974Z" fill="#2D2D2D"/>
<path d="M426.994 85.1155C426.088 84.889 425.295 84.6625 424.389 84.4361L424.276 82.7375C439.563 81.039 428.352 69.8285 428.352 66.8844C428.352 63.6005 428.013 60.9961 419.973 60.9961C411.933 60.9961 411.593 63.6005 411.593 66.8844C411.593 69.9418 400.496 81.039 415.443 82.7375L415.33 84.5493C414.537 84.6625 413.745 84.889 412.952 85.1155C409.442 86.2478 406.158 87.8332 403.101 89.9847C406.724 94.5141 411.933 97.345 417.595 98.0244C419.18 98.1377 420.765 98.1377 422.351 98.0244C428.013 97.345 433.221 94.5141 436.845 89.9847C433.788 87.8332 430.504 86.2478 426.994 85.1155Z" fill="#EAEAF5"/>
<path d="M454.054 233.344C454.054 250.443 440.239 264.371 423.14 264.371C406.041 264.371 392.113 250.556 392.113 233.457C392.113 216.358 405.928 202.43 423.027 202.43C423.027 202.43 423.027 202.43 423.14 202.43C440.239 202.317 454.054 216.132 454.167 233.117C454.167 233.117 454.167 233.231 454.054 233.344Z" fill="white"/>
<path d="M423.142 202.317C440.241 202.317 454.169 216.245 454.169 233.344C454.169 250.442 440.241 264.371 423.142 264.371C406.043 264.371 392.115 250.442 392.115 233.344C392.115 216.245 405.93 202.317 423.142 202.317ZM423.142 200.732C405.137 200.732 390.53 215.339 390.53 233.344C390.53 251.348 405.137 265.956 423.142 265.956C433.107 265.956 442.505 261.426 448.733 253.613C453.376 247.838 455.867 240.591 455.867 233.23C455.754 215.226 441.147 200.618 423.142 200.732Z" fill="#2D2D2D"/>
<path d="M433.221 245.688C431.975 245.348 430.73 245.009 429.371 244.782L429.257 242.291C451.339 239.913 435.146 223.72 435.146 219.417C435.146 214.661 434.58 210.924 423.029 210.924C411.479 210.924 410.913 214.774 410.913 219.417C410.913 223.72 394.947 239.686 416.462 242.291L416.348 244.895C415.216 245.122 413.971 245.461 412.838 245.801C407.743 247.386 402.987 249.764 398.684 252.822C409.328 266.184 428.918 268.448 442.28 257.804C444.091 256.332 445.79 254.634 447.262 252.822C443.072 249.538 438.316 247.273 433.221 245.688Z" fill="#EAEAF5"/>
<path d="M203.345 38.2365C203.345 55.3352 189.417 69.2633 172.318 69.2633C155.22 69.2633 141.292 55.3352 141.292 38.2365C141.292 21.1378 155.22 7.20968 172.318 7.20968C189.417 7.09644 203.232 20.9113 203.345 38.01C203.345 38.01 203.345 38.1233 203.345 38.2365Z" fill="white"/>
<path d="M172.32 7.20949C189.419 7.20949 203.347 21.1376 203.347 38.2363C203.347 55.335 189.419 69.2631 172.32 69.2631C155.221 69.2631 141.293 55.335 141.293 38.2363C141.293 21.1376 155.221 7.20949 172.32 7.20949ZM172.32 5.62419C154.316 5.62419 139.708 20.2317 139.708 38.2363C139.708 56.2409 154.316 70.8484 172.32 70.8484C182.285 70.8484 191.684 66.319 197.912 58.5056C202.554 52.7306 205.045 45.4835 205.045 38.1231C204.932 20.1185 190.325 5.51095 172.32 5.62419Z" fill="#2D2D2D"/>
<path d="M182.509 50.5785C181.264 50.2388 180.018 49.8991 178.659 49.6726L178.546 47.1814C200.627 44.8034 184.434 28.6106 184.434 24.3076C184.434 19.5517 183.981 15.7017 172.318 15.7017C160.655 15.7017 160.202 19.5517 160.202 24.3076C160.202 28.6106 144.235 44.577 165.75 47.1814L165.637 49.7859C164.505 50.0123 163.259 50.352 162.127 50.6918C157.031 52.2771 152.275 54.655 147.972 57.7124C158.616 71.0743 178.206 73.3391 191.568 62.6948C193.38 61.2227 195.079 59.5242 196.551 57.7124C192.248 54.5418 187.492 52.1638 182.509 50.5785Z" fill="#EAEAF5"/>
</g>
<defs>
<clipPath id="clip0_10006_18623">
<rect width="524" height="314" fill="white"/>
</clipPath>
</defs>
</svg>
