<svg width="25" height="24" viewBox="0 0 25 24" fill="none" xmlns="http://www.w3.org/2000/svg">
<path d="M13.2945 0C14.6445 0.00359992 15.3297 0.0107997 15.9213 0.0275994L16.1541 0.0359991C16.4229 0.0455989 16.688 0.0575986 17.0084 0.0719982C18.2852 0.131997 19.1564 0.333592 19.9208 0.629985C20.7128 0.934778 21.3799 1.34757 22.0471 2.01355C22.6573 2.61341 23.1294 3.33903 23.4307 4.1399C23.7271 4.90428 23.9287 5.77546 23.9887 7.05343C24.0031 7.37263 24.0151 7.63782 24.0247 7.90781L24.0319 8.14061C24.0499 8.731 24.0571 9.41618 24.0595 10.7661L24.0607 11.6613V13.2333C24.0636 14.1086 24.0544 14.9838 24.0331 15.8588L24.0259 16.0916C24.0163 16.3616 24.0043 16.6268 23.9899 16.946C23.9299 18.224 23.7259 19.094 23.4307 19.8595C23.1303 20.6608 22.6581 21.3866 22.0471 21.9859C21.4471 22.5959 20.7215 23.068 19.9208 23.3695C19.1564 23.6658 18.2852 23.8674 17.0084 23.9274C16.7237 23.9408 16.4389 23.9528 16.1541 23.9634L15.9213 23.9706C15.3297 23.9874 14.6445 23.9958 13.2945 23.9982L12.3994 23.9994H10.8286C9.95292 24.0025 9.07726 23.9933 8.20185 23.9718L7.96905 23.9646C7.68419 23.9538 7.39939 23.9415 7.11467 23.9274C5.8379 23.8674 4.96672 23.6658 4.20114 23.3695C3.40036 23.0687 2.67504 22.5965 2.07599 21.9859C1.46526 21.3862 0.992687 20.6606 0.691225 19.8595C0.394832 19.0952 0.193236 18.224 0.133238 16.946C0.119868 16.6613 0.107869 16.3765 0.0972384 16.0916L0.0912387 15.8588C0.0691256 14.9838 0.0591248 14.1086 0.0612393 13.2333V10.7661C0.0578902 9.89089 0.0666909 9.01562 0.0876387 8.14061L0.0960385 7.90781C0.105638 7.63782 0.117638 7.37263 0.132038 7.05343C0.192036 5.77546 0.393631 4.90549 0.690024 4.1399C0.991354 3.33821 1.46487 2.61237 2.07719 2.01355C2.67609 1.40334 3.40093 0.931163 4.20114 0.629985C4.96672 0.333592 5.8367 0.131997 7.11467 0.0719982C7.43387 0.0575986 7.70026 0.0455989 7.96905 0.0359991L8.20185 0.0287992C9.07686 0.00747907 9.95212 -0.0017216 10.8274 0.00119988L13.2945 0ZM12.061 5.99986C10.4697 5.99986 8.94361 6.63199 7.81842 7.75718C6.69322 8.88237 6.0611 10.4085 6.0611 11.9997C6.0611 13.591 6.69322 15.1171 7.81842 16.2423C8.94361 17.3675 10.4697 17.9996 12.061 17.9996C13.6522 17.9996 15.1783 17.3675 16.3035 16.2423C17.4287 15.1171 18.0608 13.591 18.0608 11.9997C18.0608 10.4085 17.4287 8.88237 16.3035 7.75718C15.1783 6.63199 13.6522 5.99986 12.061 5.99986ZM12.061 8.3998C12.5337 8.39972 13.0018 8.49276 13.4386 8.6736C13.8754 8.85444 14.2723 9.11954 14.6067 9.45377C14.941 9.788 15.2062 10.1848 15.3872 10.6215C15.5682 11.0583 15.6614 11.5264 15.6615 11.9991C15.6616 12.4719 15.5685 12.94 15.3877 13.3768C15.2068 13.8136 14.9417 14.2105 14.6075 14.5448C14.2733 14.8792 13.8765 15.1444 13.4397 15.3254C13.003 15.5064 12.5349 15.5996 12.0622 15.5996C11.1074 15.5996 10.1917 15.2204 9.51663 14.5452C8.84152 13.8701 8.46224 12.9545 8.46224 11.9997C8.46224 11.045 8.84152 10.1293 9.51663 9.45419C10.1917 8.77908 11.1074 8.3998 12.0622 8.3998M18.362 4.1999C17.9642 4.1999 17.5827 4.35793 17.3014 4.63923C17.0201 4.92053 16.862 5.30205 16.862 5.69987C16.862 6.09768 17.0201 6.4792 17.3014 6.7605C17.5827 7.0418 17.9642 7.19983 18.362 7.19983C18.7598 7.19983 19.1413 7.0418 19.4226 6.7605C19.7039 6.4792 19.862 6.09768 19.862 5.69987C19.862 5.30205 19.7039 4.92053 19.4226 4.63923C19.1413 4.35793 18.7598 4.1999 18.362 4.1999Z" fill="white"/>
</svg>
