<svg width="25" height="24" viewBox="0 0 25 24" fill="none" xmlns="http://www.w3.org/2000/svg">
<g id="Linkedin">
<path id="Linkedin_2" d="M20.5068 20.452H16.9535V14.8827C16.9535 13.5547 16.9268 11.8453 15.1002 11.8453C13.2482 11.8453 12.9655 13.2907 12.9655 14.7853V20.452H9.41085V9H12.8242V10.56H12.8708C13.3482 9.66133 14.5082 8.71067 16.2415 8.71067C19.8415 8.71067 20.5082 11.0813 20.5082 14.1653V20.452H20.5068ZM5.39751 7.43333C5.12625 7.43368 4.85759 7.38049 4.60693 7.27681C4.35627 7.17312 4.12854 7.02099 3.93679 6.82911C3.74504 6.63724 3.59305 6.40941 3.48953 6.15868C3.38601 5.90795 3.33299 5.63926 3.33351 5.368C3.33378 4.95978 3.45509 4.5608 3.6821 4.22153C3.90912 3.88225 4.23164 3.61791 4.60889 3.46194C4.98614 3.30596 5.40116 3.26536 5.80149 3.34525C6.20181 3.42515 6.56946 3.62197 6.85792 3.91081C7.14639 4.19965 7.34273 4.56755 7.42211 4.96798C7.5015 5.3684 7.46035 5.78338 7.30389 6.16042C7.14743 6.53747 6.88267 6.85965 6.5431 7.08623C6.20353 7.3128 5.80573 7.4336 5.39751 7.43333ZM7.17885 20.452H3.61485V9H7.18018V20.452H7.17885ZM22.2868 0H1.83218C0.850847 0 0.0601807 0.773333 0.0601807 1.72933V22.2707C0.0601807 23.2267 0.852181 24 1.83085 24H22.2815C23.2602 24 24.0602 23.2267 24.0602 22.2707V1.72933C24.0602 0.773333 23.2602 0 22.2815 0H22.2868Z" fill="white"/>
</g>
</svg>
